<svg xmlns="http://www.w3.org/2000/svg" width="100" height="118" viewBox="0 0 100 118">
    <g fill="none" fill-rule="nonzero">
        <path fill="#E6E6F5" stroke="#E6E6F5" d="M74.94 31.71l-.44-.055V8.5a8 8 0 0 0-8-8h-58a8 8 0 0 0-8 8v101a8 8 0 0 0 8 8h58a8 8 0 0 0 8-8V87.345l.44-.054C88.895 85.58 99.5 73.684 99.5 59.5c0-14.184-10.604-26.082-24.56-27.79z" opacity=".24"/>
        <path fill="#6D6DC9" d="M84.371 62.423h-5.956l-5.832-21.29a2.631 2.631 0 0 0-2.537-1.935 2.631 2.631 0 0 0-2.535 1.936l-7.977 29.152-7.32-20.014a2.63 2.63 0 0 0-5.006.21L43.94 62.423h-6.31a2.629 2.629 0 1 0 0 5.258h8.317a2.633 2.633 0 0 0 2.536-1.935l1.622-5.93 7.321 20.016a2.63 2.63 0 0 0 5.006-.21l7.618-27.84 3.825 13.964a2.631 2.631 0 0 0 2.535 1.934h7.961a2.63 2.63 0 0 0 0-5.257z" opacity=".78"/>
    </g>
</svg>
