<svg xmlns="http://www.w3.org/2000/svg" width="23" height="28" viewBox="0 0 23 28">
    <g fill="#6D6DC9" fill-rule="nonzero">
        <path d="M5.11 19.613a3.765 3.765 0 1 0 0-7.53 3.765 3.765 0 0 0 0 7.53zm0-5.34a1.574 1.574 0 1 1 0 3.15 1.574 1.574 0 0 1 0-3.15z"/>
        <path d="M21.828.036H8.411c-.604 0-1.095.49-1.095 1.095v9.789c0 .604.49 1.095 1.095 1.095h5.726l-.063 1.437h-.203c-.533 0-.988.384-1.079.91l-.722 4.205-3.08 1.32H1.171c-.605 0-1.095.49-1.095 1.095v6.23h2.19v-5.135h6.95c.148 0 .295-.03.432-.087l3.833-1.643c.342-.146.586-.455.65-.822l.654-3.882h.391l-.797 4.97-5.681 3.03c-.357.19-.58.562-.58.967v2.601h2.19v-1.944l5.572-2.979c.302-.16.512-.453.567-.791l1.095-6.777a1.095 1.095 0 0 0-1.082-1.27h-.197l.063-1.438h5.501c.605 0 1.095-.49 1.095-1.095V1.13c0-.605-.49-1.095-1.095-1.095zm-1.095 9.788h-4.304l.063-1.388-2.19-.098-.064 1.486H9.507V2.226h11.226v7.598z"/>
        <path d="M10.794 3.116h3.491v2.19h-3.491zM10.794 5.854h8.146v2.19h-8.146z"/>
    </g>
</svg>
