<svg xmlns="http://www.w3.org/2000/svg" width="15" height="15" viewBox="0 0 20 21">
    <g fill="#4A4A4A" fill-rule="nonzero">
        <path d="M2.889 20.747H17.11A2.889 2.889 0 0 0 20 17.857V10.97a1.111 1.111 0 0 0-2.222 0v6.889a.667.667 0 0 1-.667.666H2.89a.667.667 0 0 1-.667-.666v-6.89a1.111 1.111 0 0 0-2.222 0v6.89a2.889 2.889 0 0 0 2.889 2.889z"/>
        <path d="M9.778.142c-.614 0-1.111.498-1.111 1.111v9.145L5.849 7.58a1.111 1.111 0 0 0-1.571 1.571l4.713 4.713c.05.049.103.093.16.132.029.017.058.03.087.046a.644.644 0 0 0 .222.091c.031 0 .062.023.093.03.147.03.298.03.445 0 .033 0 .062-.019.093-.03a.644.644 0 0 0 .222-.09c.03-.016.06-.03.087-.047.057-.04.11-.083.16-.132l4.718-4.713a1.111 1.111 0 0 0-1.571-1.571l-2.818 2.818V1.253c0-.613-.498-1.11-1.111-1.11z"/>
    </g>
</svg>
