<svg xmlns="http://www.w3.org/2000/svg" width="17" height="15" viewBox="0 0 17 15">
    <path fill="#FFF" fill-rule="nonzero" d="M1.285 2.526h9.79a1.894 1.894 0 0 0 1.79 1.263c.82 0 1.515-.526 1.789-1.263h1.368a.62.62 0 0 0 .632-.631.62.62 0 0 0-.632-.632h-1.368A1.894 1.894 0 0 0 12.864 0c-.821 0-1.516.526-1.79 1.263H1.286a.62.62 0 0 0-.631.632.62.62 0 0 0 .631.631zM12.865.842c.589 0 1.052.463 1.052 1.053 0 .59-.463 1.052-1.053 1.052-.59 0-1.053-.463-1.053-1.052 0-.59.464-1.053 1.053-1.053zm3.157 5.684h-9.79a1.894 1.894 0 0 0-1.789-1.263c-.821 0-1.516.526-1.79 1.263H1.286a.62.62 0 0 0-.631.632.62.62 0 0 0 .631.631h1.369a1.894 1.894 0 0 0 1.789 1.264c.821 0 1.516-.527 1.79-1.264h9.789a.62.62 0 0 0 .632-.631.62.62 0 0 0-.632-.632zM4.443 8.211c-.59 0-1.053-.464-1.053-1.053 0-.59.464-1.053 1.053-1.053.59 0 1.053.463 1.053 1.053 0 .59-.464 1.053-1.053 1.053zm11.579 3.578h-5.579a1.894 1.894 0 0 0-1.79-1.263c-.82 0-1.515.527-1.789 1.263H1.285a.62.62 0 0 0-.631.632.62.62 0 0 0 .631.632h5.58a1.894 1.894 0 0 0 1.789 1.263c.82 0 1.515-.527 1.789-1.263h5.579a.62.62 0 0 0 .632-.632.62.62 0 0 0-.632-.632zm-7.368 1.685c-.59 0-1.053-.463-1.053-1.053 0-.59.463-1.053 1.053-1.053.589 0 1.052.464 1.052 1.053 0 .59-.463 1.053-1.052 1.053z"/>
</svg>
