<svg xmlns="http://www.w3.org/2000/svg" width="20" height="32" viewBox="0 0 20 32">
    <g fill="none" fill-rule="evenodd">
        <path fill="#B3B3B3" fill-rule="nonzero" d="M4.93 12.879C1.436 10.326 0 8.139 0 3.369c0-1.19.91-2.23 2.081-2.377l.617-.078c4.048-.512 10.557-.512 14.604 0l.617.078C19.086 1.139 20 2.18 20 3.368c0 4.816-1.434 7.013-4.918 9.556-1.828 1.376-2.378 2.07-2.378 3.384s.55 2.009 2.365 3.375C18.565 22.235 20 24.422 20 29.193c0 1.189-.91 2.229-2.081 2.377l-.064.008c-4.353.55-11.357.55-15.71 0l-.064-.008C.914 31.422 0 30.38 0 29.193c0-4.771 1.435-6.958 4.896-9.484l.145-.115c1.766-1.394 2.255-2.042 2.255-3.34 0-1.315-.55-2.01-2.365-3.375zm.651 7.714c-2.106 1.538-4.47 3.35-4.47 8.6 0 .62.496 1.185 1.108 1.263l.063.008c4.262.538 11.173.538 15.436 0l.063-.008a1.299 1.299 0 0 0 1.108-1.263c0-5.25-2.364-7.062-4.47-8.6-1.388-1.044-2.826-2.142-2.826-4.285 0-2.142 1.438-3.24 2.826-4.285 2.106-1.538 4.47-3.35 4.47-8.655 0-.62-.496-1.185-1.108-1.262l-.617-.078c-3.955-.5-10.372-.5-14.328 0l-.617.078A1.299 1.299 0 0 0 1.11 3.368c0 5.25 2.364 7.062 4.47 8.6 1.388 1.044 2.826 2.143 2.826 4.285 0 2.198-1.438 3.241-2.826 4.34z"/>
        <path fill="#6D6DC9" d="M16.3 7.555a.446.446 0 0 1 .363.61s-.047.156-.13.326c-.71 1.473-1.546 1.998-2.955 3.026-2.24 1.685-3.11 2.785-3.04 4.891-.01.228 0 0 0 0a.54.54 0 0 1-.551.532h.05a.554.554 0 0 1-.551-.532s.01.228 0 0c.07-2.106-.802-3.206-3.041-4.89C5.036 10.487 4.2 9.963 3.489 8.49c-.081-.17-.128-.326-.128-.326-.103-.29.057-.563.362-.61l1.448-.225c2.673-.416 7.013-.415 9.681 0l1.448.225z"/>
    </g>
</svg>
