<svg xmlns="http://www.w3.org/2000/svg" width="964" height="219" viewBox="0 0 964 219">
    <g fill="none" fill-rule="evenodd">
        <path stroke="#FFF" stroke-linecap="square" d="M50.5.5v69"/>
        <g transform="translate(32 70)">
            <circle cx="19" cy="19" r="19" fill="#000065" opacity=".137"/>
            <circle cx="19.453" cy="19.453" r="12.547" fill="#FFF" opacity=".231"/>
            <circle cx="19.297" cy="19.297" r="7.422" fill="#3B3B98" opacity=".702"/>
            <circle cx="19.297" cy="19.297" r="5.047" fill="#3B3B98" opacity=".678"/>
            <circle cx="19.297" cy="19.297" r="3.266" fill="#D3CADB" opacity=".418"/>
        </g>
        <g fill="#FFF">
            <path d="M6.176 133l-1.859-2.665a3.466 3.466 0 0 1-.351.013H1.912V133H.222v-9.1h3.744c.789 0 1.475.13 2.06.39.586.26 1.034.633 1.346 1.118.312.485.468 1.062.468 1.729 0 .685-.167 1.274-.5 1.768-.334.494-.813.862-1.437 1.105L7.996 133h-1.82zm-.039-5.863c0-.58-.19-1.027-.572-1.339-.381-.312-.94-.468-1.677-.468H1.912v3.627h1.976c.737 0 1.296-.158 1.677-.475.381-.316.572-.764.572-1.345zm10.135 2.431c0 .113-.008.273-.026.481H10.8c.096.511.345.916.748 1.216.403.299.903.448 1.501.448.763 0 1.391-.251 1.885-.754l.871 1.001a2.935 2.935 0 0 1-1.183.845 4.309 4.309 0 0 1-1.612.286c-.762 0-1.434-.152-2.015-.455a3.277 3.277 0 0 1-1.345-1.268c-.317-.541-.475-1.154-.475-1.839 0-.676.154-1.285.462-1.827a3.274 3.274 0 0 1 1.28-1.267c.546-.303 1.162-.455 1.846-.455.676 0 1.28.15 1.814.448.533.3.949.72 1.248 1.262.299.541.448 1.167.448 1.878zm-3.51-2.288c-.52 0-.96.154-1.32.462-.359.307-.578.717-.656 1.228h3.94c-.07-.503-.282-.91-.638-1.222-.355-.312-.797-.468-1.326-.468zm9.096-1.3c.676 0 1.28.147 1.813.442.533.295.951.71 1.255 1.248.303.537.455 1.157.455 1.859s-.152 1.324-.455 1.866c-.304.541-.722.96-1.255 1.254-.533.295-1.137.442-1.813.442-.936 0-1.677-.312-2.223-.936v3.367H18.01v-9.464h1.547v.91c.268-.33.6-.576.994-.741.394-.165.83-.247 1.307-.247zm-.182 5.72c.598 0 1.09-.2 1.475-.598.386-.399.579-.923.579-1.573 0-.65-.193-1.174-.579-1.573-.386-.399-.877-.598-1.475-.598-.39 0-.741.089-1.053.267a1.926 1.926 0 0 0-.741.76c-.182.33-.273.71-.273 1.144 0 .433.09.815.273 1.144.182.33.429.583.74.76a2.09 2.09 0 0 0 1.054.267zm5.429-8.346h1.625V133h-1.625v-9.646zm10.46 6.214c0 .113-.009.273-.026.481h-5.447c.095.511.345.916.748 1.216.403.299.903.448 1.501.448.763 0 1.391-.251 1.885-.754l.871 1.001a2.935 2.935 0 0 1-1.183.845 4.309 4.309 0 0 1-1.612.286c-.763 0-1.434-.152-2.015-.455a3.277 3.277 0 0 1-1.345-1.268c-.317-.541-.475-1.154-.475-1.839 0-.676.154-1.285.462-1.827a3.274 3.274 0 0 1 1.28-1.267c.546-.303 1.161-.455 1.846-.455.676 0 1.28.15 1.814.448.533.3.949.72 1.248 1.262.299.541.448 1.167.448 1.878zm-3.51-2.288c-.52 0-.96.154-1.32.462-.36.307-.578.717-.656 1.228h3.94c-.07-.503-.283-.91-.638-1.222-.355-.312-.797-.468-1.326-.468zm9.186-1.3c.876 0 1.578.256 2.106.767.529.511.793 1.27.793 2.275V133h-1.625v-3.77c0-.607-.143-1.064-.429-1.371-.286-.308-.693-.462-1.222-.462-.598 0-1.07.18-1.417.54-.346.36-.52.877-.52 1.553V133h-1.625v-6.942h1.547v.897a2.54 2.54 0 0 1 1.014-.728 3.65 3.65 0 0 1 1.378-.247zm5.144.078h1.625V133h-1.625v-6.942zm.819-1.144c-.295 0-.542-.093-.741-.28a.913.913 0 0 1-.3-.695c0-.277.1-.51.3-.695.199-.187.446-.28.74-.28.295 0 .542.089.742.267.199.177.299.4.299.669a.98.98 0 0 1-.293.722 1.012 1.012 0 0 1-.747.292zm5.26 8.177a6.215 6.215 0 0 1-1.651-.221c-.537-.147-.966-.334-1.287-.559l.624-1.235c.312.208.687.375 1.124.5.438.126.87.189 1.294.189.97 0 1.456-.256 1.456-.767 0-.243-.124-.412-.37-.507-.248-.095-.644-.186-1.19-.273a9.65 9.65 0 0 1-1.398-.299 2.145 2.145 0 0 1-.936-.591c-.264-.282-.396-.674-.396-1.177 0-.659.275-1.185.825-1.58.55-.394 1.294-.591 2.23-.591.477 0 .953.054 1.43.163.477.108.867.253 1.17.435l-.624 1.235c-.59-.347-1.252-.52-1.99-.52-.476 0-.838.071-1.085.215-.247.143-.37.331-.37.565 0 .26.132.444.396.553.265.108.674.21 1.229.305a9.48 9.48 0 0 1 1.365.299c.355.113.66.303.916.572.256.269.384.65.384 1.144 0 .65-.282 1.17-.845 1.56-.563.39-1.33.585-2.301.585zm8.666-7.111c.876 0 1.578.256 2.106.767.529.511.793 1.27.793 2.275V133h-1.625v-3.77c0-.607-.143-1.064-.429-1.372-.286-.307-.693-.461-1.222-.461-.598 0-1.07.18-1.417.54-.346.36-.52.877-.52 1.553V133h-1.625v-9.646h1.625v3.51c.269-.286.6-.505.995-.657a3.65 3.65 0 0 1 1.32-.227zm13.905 0c.876 0 1.57.253 2.08.76.512.508.767 1.268.767 2.282V133h-1.625v-3.77c0-.607-.134-1.064-.403-1.372-.268-.307-.654-.461-1.157-.461-.546 0-.983.18-1.313.54-.329.36-.494.873-.494 1.54V133h-1.625v-3.77c0-.607-.134-1.064-.403-1.372-.268-.307-.654-.461-1.157-.461-.554 0-.994.178-1.319.533-.325.355-.488.871-.488 1.547V133h-1.625v-6.942h1.547v.884c.26-.312.585-.55.975-.715a3.31 3.31 0 0 1 1.3-.247c.52 0 .982.097 1.385.292.403.196.721.484.955.865a2.893 2.893 0 0 1 1.105-.851c.451-.204.95-.306 1.495-.306zm11.696 3.588c0 .113-.009.273-.026.481h-5.447c.095.511.344.916.747 1.216.403.299.904.448 1.502.448.762 0 1.39-.251 1.885-.754l.87 1.001a2.935 2.935 0 0 1-1.182.845 4.309 4.309 0 0 1-1.612.286c-.763 0-1.435-.152-2.015-.455a3.277 3.277 0 0 1-1.346-1.268c-.316-.541-.474-1.154-.474-1.839 0-.676.154-1.285.461-1.827a3.274 3.274 0 0 1 1.28-1.267c.547-.303 1.162-.455 1.847-.455.676 0 1.28.15 1.813.448.533.3.95.72 1.248 1.262.3.541.449 1.167.449 1.878zm-3.51-2.288c-.52 0-.96.154-1.32.462-.36.307-.578.717-.656 1.228h3.939c-.07-.503-.282-.91-.637-1.222-.356-.312-.798-.468-1.326-.468zm9.186-1.3c.875 0 1.577.256 2.106.767.529.511.793 1.27.793 2.275V133h-1.625v-3.77c0-.607-.143-1.064-.429-1.371-.286-.308-.693-.462-1.222-.462-.598 0-1.07.18-1.417.54-.347.36-.52.877-.52 1.553V133h-1.625v-6.942h1.547v.897a2.54 2.54 0 0 1 1.014-.728 3.65 3.65 0 0 1 1.378-.247zm9.316 6.643c-.19.156-.422.273-.695.351a3.132 3.132 0 0 1-.865.117c-.762 0-1.352-.2-1.768-.598-.416-.399-.624-.98-.624-1.742v-3.341h-1.144v-1.3h1.144v-1.586h1.625v1.586h1.86v1.3h-1.86v3.302c0 .338.083.596.247.774.165.177.403.266.715.266.364 0 .668-.095.91-.286l.455 1.157z"/>
            <g fill-rule="nonzero" opacity=".294">
                <path d="M32.376 202.282l-2.888-2.89-2.29 2.286 5.178 5.17 6.29-6.286-2.286-2.278z"/>
                <path d="M51.732 165.15l-25.27 11.377v16.687c-2.7 1.994-4.462 5.18-4.462 8.781 0 6.016 4.907 10.912 10.93 10.912 2.128 0 4.108-.617 5.787-1.67l13.015 5.863L77 205.716v-29.189L51.732 165.15zM32.93 209.674c-4.242 0-7.692-3.447-7.692-7.68 0-4.236 3.45-7.685 7.692-7.685 4.247 0 7.696 3.449 7.696 7.685 0 4.234-3.449 7.68-7.696 7.68zm18.802-25.306l-17.403-7.84 17.403-7.834 17.402 7.833-17.402 7.841z"/>
            </g>
        </g>
        <path stroke="#FFF" stroke-linecap="square" d="M191.5.5v69"/>
        <g transform="translate(173 70)">
            <circle cx="19" cy="19" r="19" fill="#000065" opacity=".137"/>
            <circle cx="19.453" cy="19.453" r="12.547" fill="#FFF" opacity=".231"/>
            <circle cx="19.297" cy="19.297" r="7.422" fill="#3B3B98" opacity=".702"/>
            <circle cx="19.297" cy="19.297" r="5.047" fill="#3B3B98" opacity=".678"/>
            <circle cx="19.297" cy="19.297" r="3.266" fill="#D3CADB" opacity=".418"/>
        </g>
        <g fill="#FFF">
            <path d="M128.222 123.9h3.978c.97 0 1.833.188 2.587.565.754.378 1.339.91 1.755 1.6.416.689.624 1.484.624 2.385 0 .901-.208 1.696-.624 2.386a4.185 4.185 0 0 1-1.755 1.599c-.754.377-1.616.565-2.587.565h-3.978v-9.1zm3.9 7.67c.667 0 1.254-.128 1.761-.383.508-.256.897-.62 1.17-1.093.274-.472.41-1.02.41-1.644 0-.624-.136-1.172-.41-1.644a2.744 2.744 0 0 0-1.17-1.093c-.507-.255-1.094-.383-1.761-.383h-2.21v6.24h2.21zm13.385-2.002c0 .113-.008.273-.026.481h-5.447c.096.511.345.916.748 1.215.403.3.903.449 1.501.449.763 0 1.391-.251 1.885-.754l.871 1.001a2.935 2.935 0 0 1-1.183.845 4.309 4.309 0 0 1-1.612.286c-.762 0-1.434-.152-2.015-.455a3.277 3.277 0 0 1-1.345-1.268c-.317-.541-.475-1.154-.475-1.839 0-.676.154-1.285.462-1.827a3.274 3.274 0 0 1 1.28-1.267c.546-.303 1.162-.455 1.846-.455.676 0 1.28.15 1.814.448.533.3.949.72 1.248 1.261.299.542.448 1.168.448 1.879zm-3.51-2.288c-.52 0-.96.154-1.32.461-.359.308-.578.718-.656 1.229h3.94c-.07-.503-.282-.91-.638-1.222-.355-.312-.797-.468-1.326-.468zm14.01-1.3c.875 0 1.568.253 2.08.76.51.508.767 1.268.767 2.282V133h-1.625v-3.77c0-.607-.135-1.064-.403-1.372-.27-.307-.655-.461-1.157-.461-.546 0-.984.18-1.313.54-.33.36-.494.873-.494 1.54V133h-1.625v-3.77c0-.607-.135-1.064-.403-1.372-.27-.307-.655-.461-1.157-.461-.555 0-.995.178-1.32.533-.325.355-.487.871-.487 1.547V133h-1.625v-6.942h1.547v.884c.26-.312.585-.55.975-.715a3.31 3.31 0 0 1 1.3-.247c.52 0 .981.097 1.384.292.403.196.722.484.956.865a2.893 2.893 0 0 1 1.105-.851c.45-.204.949-.306 1.495-.306zm7.756 0c1.022 0 1.805.245 2.346.734.542.49.813 1.229.813 2.217V133h-1.534v-.845a1.89 1.89 0 0 1-.852.695c-.368.16-.812.241-1.332.241s-.975-.089-1.365-.267a2.11 2.11 0 0 1-.904-.74 1.88 1.88 0 0 1-.318-1.073c0-.624.232-1.124.695-1.502.464-.377 1.194-.565 2.19-.565h1.795v-.104c0-.485-.145-.858-.436-1.118-.29-.26-.721-.39-1.293-.39-.39 0-.774.06-1.15.182-.378.121-.696.29-.956.507l-.637-1.183c.364-.277.801-.49 1.313-.637a5.842 5.842 0 0 1 1.625-.221zm-.221 5.928c.407 0 .769-.093 1.085-.28a1.52 1.52 0 0 0 .67-.799v-.806h-1.677c-.936 0-1.404.308-1.404.923 0 .295.117.529.35.702.235.173.56.26.976.26zm9.576-5.928c.875 0 1.577.256 2.106.767.529.511.793 1.27.793 2.275V133h-1.625v-3.77c0-.607-.143-1.064-.429-1.372-.286-.307-.693-.461-1.222-.461-.598 0-1.07.18-1.417.54-.347.36-.52.877-.52 1.553V133h-1.625v-6.942h1.547v.897a2.54 2.54 0 0 1 1.014-.728 3.65 3.65 0 0 1 1.378-.247zm12.007-2.626V133h-1.56v-.897c-.268.33-.6.576-.994.741-.394.165-.83.247-1.307.247-.667 0-1.267-.147-1.8-.442a3.176 3.176 0 0 1-1.255-1.254c-.303-.542-.455-1.164-.455-1.866 0-.702.152-1.322.455-1.859a3.187 3.187 0 0 1 1.255-1.248c.533-.295 1.133-.442 1.8-.442.46 0 .88.078 1.261.234.382.156.707.39.975.702v-3.562h1.625zm-3.666 8.346c.39 0 .741-.089 1.053-.266.312-.178.56-.432.741-.761.182-.33.273-.71.273-1.144 0-.433-.09-.815-.273-1.144a1.926 1.926 0 0 0-.74-.76 2.09 2.09 0 0 0-1.054-.267c-.39 0-.74.089-1.053.266a1.926 1.926 0 0 0-.74.761c-.183.33-.274.71-.274 1.144 0 .433.091.815.273 1.144.182.33.43.583.741.76a2.09 2.09 0 0 0 1.053.267zm13.64-7.8c.79 0 1.476.13 2.061.39s1.034.633 1.346 1.118c.312.485.468 1.062.468 1.729 0 .659-.156 1.233-.468 1.722-.312.49-.76.865-1.346 1.125-.585.26-1.271.39-2.06.39h-2.054V133h-1.69v-9.1h3.744zm-.077 5.044c.737 0 1.296-.156 1.677-.468.381-.312.572-.758.572-1.339 0-.58-.19-1.027-.572-1.339-.381-.312-.94-.468-1.677-.468h-1.976v3.614h1.976zm5.793-5.59h1.625V133h-1.625v-9.646zm6.586 2.626c1.023 0 1.805.245 2.347.734.542.49.812 1.229.812 2.217V133h-1.534v-.845a1.89 1.89 0 0 1-.851.695c-.368.16-.813.241-1.333.241s-.975-.089-1.365-.267a2.11 2.11 0 0 1-.903-.74 1.88 1.88 0 0 1-.319-1.073c0-.624.232-1.124.696-1.502.464-.377 1.194-.565 2.19-.565h1.794v-.104c0-.485-.145-.858-.435-1.118-.29-.26-.722-.39-1.294-.39-.39 0-.773.06-1.15.182-.377.121-.696.29-.956.507l-.637-1.183c.364-.277.802-.49 1.313-.637a5.842 5.842 0 0 1 1.625-.221zm-.22 5.928c.407 0 .769-.093 1.085-.28a1.52 1.52 0 0 0 .67-.799v-.806h-1.678c-.936 0-1.404.308-1.404.923 0 .295.117.529.351.702.234.173.56.26.975.26zm9.576-5.928c.875 0 1.577.256 2.106.767.528.511.793 1.27.793 2.275V133h-1.625v-3.77c0-.607-.143-1.064-.43-1.372-.285-.307-.693-.461-1.221-.461-.598 0-1.07.18-1.417.54-.347.36-.52.877-.52 1.553V133h-1.625v-6.942h1.547v.897a2.54 2.54 0 0 1 1.014-.728 3.65 3.65 0 0 1 1.378-.247zm9.082 0c.875 0 1.577.256 2.106.767.529.511.793 1.27.793 2.275V133h-1.625v-3.77c0-.607-.143-1.064-.429-1.372-.286-.307-.693-.461-1.222-.461-.598 0-1.07.18-1.417.54-.347.36-.52.877-.52 1.553V133H221.9v-6.942h1.547v.897a2.54 2.54 0 0 1 1.014-.728 3.65 3.65 0 0 1 1.378-.247zm5.143.078h1.625V133h-1.625v-6.942zm.82-1.144c-.295 0-.542-.093-.742-.28a.913.913 0 0 1-.299-.695c0-.277.1-.51.3-.696.199-.186.446-.279.74-.279.295 0 .542.089.741.267.2.177.3.4.3.669a.98.98 0 0 1-.293.721 1.012 1.012 0 0 1-.748.293zm7.054 1.066c.875 0 1.577.256 2.106.767.528.511.793 1.27.793 2.275V133h-1.625v-3.77c0-.607-.143-1.064-.43-1.372-.285-.307-.693-.461-1.221-.461-.598 0-1.07.18-1.417.54-.347.36-.52.877-.52 1.553V133h-1.625v-6.942h1.547v.897a2.54 2.54 0 0 1 1.014-.728 3.65 3.65 0 0 1 1.378-.247zm12.098.078v5.889c0 2.444-1.248 3.666-3.744 3.666-.668 0-1.3-.084-1.898-.253-.598-.17-1.092-.414-1.482-.735l.728-1.222c.303.251.687.453 1.15.604a4.51 4.51 0 0 0 1.41.228c.763 0 1.322-.173 1.678-.52.355-.347.533-.875.533-1.586v-.364a2.671 2.671 0 0 1-1.014.689 3.573 3.573 0 0 1-1.313.234c-.659 0-1.255-.14-1.788-.423a3.174 3.174 0 0 1-1.26-1.189c-.308-.511-.462-1.096-.462-1.755 0-.659.154-1.241.461-1.749.308-.507.728-.899 1.261-1.176a3.814 3.814 0 0 1 1.788-.416c.502 0 .96.082 1.371.247a2.53 2.53 0 0 1 1.034.754v-.923h1.547zm-3.705 5.252c.615 0 1.12-.184 1.514-.553.395-.368.592-.847.592-1.436 0-.58-.197-1.053-.592-1.417-.394-.364-.899-.546-1.514-.546-.624 0-1.133.182-1.528.546-.394.364-.591.836-.591 1.417 0 .59.197 1.068.591 1.437.395.368.904.552 1.528.552z"/>
            <path fill-rule="nonzero" d="M178.349 215.868h29.723a6.513 6.513 0 0 0 6.514-6.513v-22.44c0-3.575-2.88-6.481-6.454-6.514h-4.974v-9.059a1.184 1.184 0 0 0-.178-.592l-3.552-5.921a1.184 1.184 0 0 0-2.014 0l-3.552 5.921c-.11.178-.172.382-.178.592v8.94h-9.829v-6.868c0-.654-.53-1.184-1.184-1.184h-4.322a7.875 7.875 0 0 0-7.875 7.58V207.992a7.875 7.875 0 0 0 7.875 7.875zm17.704-20.131h4.736v1.776a2.368 2.368 0 0 1-4.736 0v-1.776zm2.368-28.007l2.368 3.967v21.671h-4.736v-21.73l2.368-3.908zm-4.737 14.921v14.862a4.737 4.737 0 0 0 9.474 0v-14.802h4.914a4.145 4.145 0 0 1 4.086 4.144v22.5a4.145 4.145 0 0 1-4.145 4.145H178.35a5.536 5.536 0 1 1 0-11.072h4.322c.654 0 1.184-.53 1.184-1.185v-18.71l9.83.118zM178.35 174.6h3.138v25.46h-3.138a7.875 7.875 0 0 0-5.507 2.25v-22.145a5.507 5.507 0 0 1 5.507-5.565z" opacity=".29"/>
        </g>
        <path stroke="#FFF" stroke-linecap="square" d="M331.5.5v69"/>
        <g transform="translate(313 70)">
            <circle cx="19" cy="19" r="19" fill="#000065" opacity=".137"/>
            <circle cx="19.453" cy="19.453" r="12.547" fill="#FFF" opacity=".231"/>
            <circle cx="19.297" cy="19.297" r="7.422" fill="#3B3B98" opacity=".702"/>
            <circle cx="19.297" cy="19.297" r="5.047" fill="#3B3B98" opacity=".678"/>
            <circle cx="19.297" cy="19.297" r="3.266" fill="#D3CADB" opacity=".418"/>
        </g>
        <g fill="#FFF">
            <path d="M289.124 131.894h-4.55l-.897 2.106h-1.742l4.095-9.1h1.664l4.108 9.1h-1.768l-.91-2.106zm-.559-1.326l-1.716-3.978-1.703 3.978h3.419zm11.15-6.214V134h-1.56v-.897c-.27.33-.6.576-.995.741-.395.165-.83.247-1.307.247-.667 0-1.267-.147-1.8-.442a3.176 3.176 0 0 1-1.255-1.254c-.303-.542-.455-1.164-.455-1.866 0-.702.152-1.322.455-1.859a3.187 3.187 0 0 1 1.255-1.248c.533-.295 1.133-.442 1.8-.442.46 0 .88.078 1.261.234.382.156.707.39.975.702v-3.562h1.625zm-3.667 8.346c.39 0 .741-.089 1.053-.266.312-.178.56-.432.741-.761.182-.33.273-.71.273-1.144 0-.433-.09-.815-.273-1.144a1.926 1.926 0 0 0-.74-.76 2.09 2.09 0 0 0-1.054-.267c-.39 0-.74.089-1.053.266a1.926 1.926 0 0 0-.74.761c-.183.33-.274.71-.274 1.144 0 .433.091.815.273 1.144.182.33.43.583.741.76a2.09 2.09 0 0 0 1.053.267zm14.738-5.72c.875 0 1.568.253 2.08.76.51.508.767 1.268.767 2.282V134h-1.625v-3.77c0-.607-.135-1.064-.403-1.371-.27-.308-.655-.462-1.157-.462-.546 0-.984.18-1.313.54-.33.36-.494.873-.494 1.54V134h-1.625v-3.77c0-.607-.135-1.064-.403-1.371-.27-.308-.655-.462-1.157-.462-.555 0-.995.178-1.32.533-.325.355-.487.871-.487 1.547V134h-1.625v-6.942h1.547v.884c.26-.312.585-.55.975-.715a3.31 3.31 0 0 1 1.3-.247c.52 0 .981.097 1.384.292.403.196.722.484.956.865a2.893 2.893 0 0 1 1.105-.851c.45-.204.949-.306 1.495-.306zm5.104.078h1.625V134h-1.625v-6.942zm.819-1.144c-.295 0-.542-.093-.741-.28a.913.913 0 0 1-.3-.695c0-.277.1-.51.3-.695.2-.187.446-.28.74-.28.295 0 .542.089.742.267.2.177.299.4.299.669a.98.98 0 0 1-.293.722 1.012 1.012 0 0 1-.747.292zm7.054 1.066c.875 0 1.577.256 2.106.767.529.511.793 1.27.793 2.275V134h-1.625v-3.77c0-.607-.143-1.064-.429-1.371-.286-.308-.693-.462-1.222-.462-.598 0-1.07.18-1.417.54-.347.36-.52.877-.52 1.553V134h-1.625v-6.942h1.547v.897a2.54 2.54 0 0 1 1.014-.728 3.65 3.65 0 0 1 1.378-.247zm5.143.078h1.625V134h-1.625v-6.942zm.82-1.144c-.295 0-.542-.093-.742-.28a.913.913 0 0 1-.299-.695c0-.277.1-.51.3-.695.199-.187.446-.28.74-.28.295 0 .542.089.741.267.2.177.3.4.3.669a.98.98 0 0 1-.293.722 1.012 1.012 0 0 1-.748.292zm5.26 8.177a6.215 6.215 0 0 1-1.651-.221c-.538-.147-.967-.334-1.287-.559l.624-1.235c.312.208.686.375 1.124.5.438.126.869.189 1.294.189.97 0 1.456-.256 1.456-.767 0-.243-.124-.412-.37-.507-.248-.095-.644-.186-1.19-.273a9.65 9.65 0 0 1-1.398-.299 2.145 2.145 0 0 1-.936-.591c-.264-.282-.396-.674-.396-1.177 0-.659.275-1.185.825-1.58.55-.394 1.294-.591 2.23-.591.476 0 .953.054 1.43.163.476.108.866.253 1.17.435l-.624 1.235c-.59-.347-1.253-.52-1.99-.52-.476 0-.838.071-1.085.215-.247.143-.37.331-.37.565 0 .26.132.444.396.552.264.109.674.21 1.229.306a9.48 9.48 0 0 1 1.365.299c.355.113.66.303.916.572.256.269.384.65.384 1.144 0 .65-.282 1.17-.845 1.56-.564.39-1.33.585-2.301.585zm8.9-.468c-.19.156-.423.273-.696.351a3.132 3.132 0 0 1-.864.117c-.763 0-1.352-.2-1.768-.598-.416-.399-.624-.98-.624-1.742v-3.341h-1.144v-1.3h1.144v-1.586h1.625v1.586h1.859v1.3h-1.86v3.302c0 .338.083.596.248.774.165.177.403.266.715.266.364 0 .667-.095.91-.286l.455 1.157zm3.063-5.551c.468-.728 1.292-1.092 2.47-1.092v1.547a2.063 2.063 0 0 0-.377-.039c-.632 0-1.126.184-1.482.553-.355.368-.533.899-.533 1.592V134h-1.625v-6.942h1.547v1.014zm6.638-1.092c1.023 0 1.805.245 2.347.735s.812 1.228.812 2.216V134h-1.534v-.845a1.89 1.89 0 0 1-.851.696c-.368.16-.813.24-1.333.24s-.975-.089-1.365-.266a2.11 2.11 0 0 1-.903-.741 1.88 1.88 0 0 1-.319-1.073c0-.624.232-1.124.696-1.501.464-.378 1.194-.566 2.19-.566h1.794v-.104c0-.485-.145-.858-.435-1.118-.29-.26-.722-.39-1.294-.39-.39 0-.773.06-1.15.182-.377.121-.696.29-.956.507l-.637-1.183c.364-.277.802-.49 1.313-.637a5.842 5.842 0 0 1 1.625-.221zm-.22 5.928c.407 0 .769-.093 1.085-.28a1.52 1.52 0 0 0 .67-.799v-.806h-1.678c-.936 0-1.404.308-1.404.923 0 .295.117.529.351.702.234.173.56.26.975.26zm9.81.715c-.19.156-.423.273-.696.351a3.132 3.132 0 0 1-.864.117c-.763 0-1.352-.2-1.768-.598-.416-.399-.624-.98-.624-1.742v-3.341h-1.144v-1.3h1.144v-1.586h1.625v1.586h1.859v1.3h-1.86v3.302c0 .338.083.596.248.774.164.177.403.266.715.266.364 0 .667-.095.91-.286l.455 1.157zm1.516-6.565h1.625V134h-1.625v-6.942zm.819-1.144c-.295 0-.542-.093-.741-.28a.913.913 0 0 1-.299-.695c0-.277.1-.51.299-.695.2-.187.446-.28.741-.28s.542.089.741.267c.2.177.299.4.299.669a.98.98 0 0 1-.292.722 1.012 1.012 0 0 1-.748.292zm6.235 8.177c-.702 0-1.334-.152-1.898-.455a3.318 3.318 0 0 1-1.32-1.267c-.316-.542-.474-1.155-.474-1.84s.158-1.296.475-1.833a3.331 3.331 0 0 1 1.32-1.261c.563-.303 1.195-.455 1.897-.455.71 0 1.348.152 1.911.455a3.331 3.331 0 0 1 1.32 1.261c.316.537.474 1.148.474 1.833s-.158 1.298-.474 1.84a3.318 3.318 0 0 1-1.32 1.267c-.563.303-1.2.455-1.91.455zm0-1.391c.598 0 1.092-.2 1.482-.598.39-.399.585-.923.585-1.573 0-.65-.195-1.174-.585-1.573-.39-.399-.884-.598-1.482-.598s-1.09.2-1.475.598c-.386.399-.579.923-.579 1.573 0 .65.193 1.174.579 1.573.385.399.877.598 1.475.598zm9.382-5.72c.875 0 1.577.256 2.106.767.528.511.793 1.27.793 2.275V134h-1.625v-3.77c0-.607-.143-1.064-.43-1.371-.285-.308-.693-.462-1.221-.462-.598 0-1.07.18-1.417.54-.347.36-.52.877-.52 1.553V134h-1.625v-6.942h1.547v.897a2.54 2.54 0 0 1 1.014-.728 3.65 3.65 0 0 1 1.378-.247z"/>
            <path fill-rule="nonzero" d="M309.123 214.46v-9.108a4.602 4.602 0 0 1 1.677-3.58 69.182 69.182 0 0 1 9.026-6.207 1.304 1.304 0 0 1 1.846.583l6.136 13.536 2.23-5.303a3.104 3.104 0 1 1 2.93 0l2.214 5.308 6.146-13.541a1.304 1.304 0 0 1 1.846-.593 69.075 69.075 0 0 1 9.026 6.218 4.602 4.602 0 0 1 1.677 3.58v9.112a2.649 2.649 0 0 1-2.649 2.649h-39.451a2.654 2.654 0 0 1-2.654-2.654zm11.321-35.796c.258-.956.64-1.874 1.136-2.73l-1.279-1.826a1.688 1.688 0 0 1 .19-2.163l1.293-1.314c.58-.58 1.492-.66 2.163-.19l1.826 1.279c.863-.5 1.788-.883 2.75-1.14l.384-2.194A1.687 1.687 0 0 1 330.57 167h1.862c.82 0 1.52.589 1.662 1.396l.383 2.184c.956.258 1.874.64 2.73 1.135l1.826-1.279a1.687 1.687 0 0 1 2.184.195l1.314 1.314c.58.58.66 1.492.19 2.163l-1.28 1.826c.497.856.878 1.774 1.136 2.73l2.194.384a1.687 1.687 0 0 1 1.396 1.662v1.861c0 .82-.589 1.52-1.396 1.662l-2.194.383c-.257.958-.639 1.878-1.135 2.736l1.278 1.826c.471.671.391 1.584-.189 2.163l-1.314 1.32c-.58.58-1.492.66-2.163.188l-1.841-1.304c-.857.496-1.775.878-2.73 1.136l-.384 2.193a1.687 1.687 0 0 1-1.662 1.396h-1.867c-.82 0-1.52-.588-1.662-1.396l-.383-2.193a11.368 11.368 0 0 1-2.736-1.136l-1.825 1.279a1.688 1.688 0 0 1-2.179-.164l-1.314-1.314a1.688 1.688 0 0 1-.19-2.163l1.28-1.826a11.373 11.373 0 0 1-1.136-2.735l-2.194-.384a1.687 1.687 0 0 1-1.396-1.662v-1.861c0-.82.589-1.52 1.396-1.662l2.214-.389zm5.804 2.976a5.252 5.252 0 1 0 10.504 0 5.252 5.252 0 0 0-10.504.005v-.005z" opacity=".29"/>
        </g>
        <g>
            <path stroke="#FFF" stroke-linecap="square" d="M477.5.5v69"/>
            <g transform="translate(459 70)">
                <circle cx="19" cy="19" r="19" fill="#000065" opacity=".137"/>
                <circle cx="19.453" cy="19.453" r="12.547" fill="#FFF" opacity=".231"/>
                <circle cx="19.297" cy="19.297" r="7.422" fill="#3B3B98" opacity=".702"/>
                <circle cx="19.297" cy="19.297" r="5.047" fill="#3B3B98" opacity=".678"/>
                <circle cx="19.297" cy="19.297" r="3.266" fill="#D3CADB" opacity=".418"/>
            </g>
            <g fill="#FFF">
                <path d="M414.542 124.9l-3.965 9.1h-1.664l-3.978-9.1h1.833l3.029 7.02 3.055-7.02h1.69zm6.99 5.668c0 .113-.01.273-.027.481h-5.447c.096.511.345.916.748 1.215.403.3.903.449 1.501.449.763 0 1.391-.251 1.885-.754l.871 1.001a2.935 2.935 0 0 1-1.183.845 4.309 4.309 0 0 1-1.612.286c-.762 0-1.434-.152-2.015-.455a3.277 3.277 0 0 1-1.345-1.268c-.317-.541-.475-1.154-.475-1.839 0-.676.154-1.285.462-1.827a3.274 3.274 0 0 1 1.28-1.267c.546-.303 1.162-.455 1.846-.455.676 0 1.28.15 1.814.448.533.3.949.72 1.248 1.261.299.542.448 1.168.448 1.879zm-3.51-2.288c-.52 0-.96.154-1.32.462-.36.307-.579.717-.657 1.228h3.94c-.07-.503-.282-.91-.638-1.222-.355-.312-.797-.468-1.326-.468zm9.186-1.3c.875 0 1.577.256 2.106.767.528.511.793 1.27.793 2.275V134h-1.625v-3.77c0-.607-.143-1.064-.43-1.372-.285-.307-.693-.461-1.221-.461-.598 0-1.07.18-1.417.54-.347.36-.52.877-.52 1.553V134h-1.625v-6.942h1.547v.897a2.54 2.54 0 0 1 1.014-.728 3.65 3.65 0 0 1 1.378-.247zm12.007-2.626V134h-1.56v-.897c-.269.33-.6.576-.995.741-.394.165-.83.247-1.306.247-.668 0-1.268-.147-1.8-.442a3.176 3.176 0 0 1-1.255-1.254c-.304-.542-.455-1.164-.455-1.866 0-.702.151-1.322.455-1.859a3.187 3.187 0 0 1 1.254-1.248c.533-.295 1.133-.442 1.8-.442.46 0 .88.078 1.262.234.381.156.706.39.975.702v-3.562h1.625zm-3.666 8.346c.39 0 .74-.089 1.053-.266.312-.178.559-.432.74-.761.183-.33.274-.71.274-1.144 0-.433-.091-.815-.273-1.144a1.926 1.926 0 0 0-.741-.76 2.09 2.09 0 0 0-1.053-.267c-.39 0-.741.089-1.053.266a1.926 1.926 0 0 0-.741.761c-.182.33-.273.71-.273 1.144 0 .433.09.815.273 1.144.182.33.429.583.74.76a2.09 2.09 0 0 0 1.054.267zm9.095 1.391c-.702 0-1.335-.152-1.898-.455a3.318 3.318 0 0 1-1.32-1.268c-.316-.541-.474-1.154-.474-1.839s.158-1.296.475-1.833a3.331 3.331 0 0 1 1.32-1.261c.562-.303 1.195-.455 1.897-.455.71 0 1.348.152 1.911.455a3.331 3.331 0 0 1 1.32 1.261c.316.537.474 1.148.474 1.833s-.158 1.298-.474 1.84a3.318 3.318 0 0 1-1.32 1.267c-.563.303-1.2.455-1.91.455zm0-1.391c.598 0 1.092-.2 1.482-.598.39-.399.585-.923.585-1.573 0-.65-.195-1.174-.585-1.573-.39-.399-.884-.598-1.482-.598s-1.09.2-1.475.598c-.386.399-.579.923-.579 1.573 0 .65.193 1.174.579 1.573.385.399.877.598 1.475.598zm6.99-4.628c.467-.728 1.29-1.092 2.47-1.092v1.547a2.063 2.063 0 0 0-.378-.039c-.632 0-1.126.184-1.482.553-.355.368-.533.899-.533 1.592V134h-1.625v-6.942h1.547v1.014zm16.37 5.928l-.013-6.032-2.99 4.992h-.754l-2.99-4.914V134h-1.612v-9.1h1.39l3.615 6.032 3.549-6.032h1.39l.014 9.1h-1.6zm6.73-7.02c1.022 0 1.804.245 2.346.734.541.49.812 1.229.812 2.217V134h-1.534v-.845a1.89 1.89 0 0 1-.851.696c-.369.16-.813.24-1.333.24s-.975-.089-1.365-.266a2.11 2.11 0 0 1-.903-.741 1.88 1.88 0 0 1-.319-1.073c0-.624.232-1.124.696-1.501.463-.378 1.194-.566 2.19-.566h1.794v-.104c0-.485-.145-.858-.435-1.118-.29-.26-.722-.39-1.294-.39-.39 0-.773.06-1.15.182-.377.121-.696.29-.956.507l-.637-1.183c.364-.277.802-.49 1.313-.637a5.842 5.842 0 0 1 1.625-.221zm-.222 5.928c.408 0 .77-.093 1.086-.28a1.52 1.52 0 0 0 .67-.799v-.806h-1.678c-.936 0-1.404.308-1.404.923 0 .295.117.529.351.702.234.173.56.26.975.26zm9.576-5.928c.876 0 1.578.256 2.106.767.53.511.793 1.27.793 2.275V134h-1.625v-3.77c0-.607-.143-1.064-.429-1.371-.286-.308-.693-.462-1.222-.462-.598 0-1.07.18-1.417.54-.346.36-.52.877-.52 1.553V134h-1.625v-6.942h1.547v.897a2.54 2.54 0 0 1 1.014-.728 3.65 3.65 0 0 1 1.378-.247zm7.796 0c1.022 0 1.805.245 2.346.735.542.49.813 1.228.813 2.216V134h-1.534v-.845a1.89 1.89 0 0 1-.852.696c-.368.16-.812.24-1.332.24s-.975-.089-1.365-.266a2.11 2.11 0 0 1-.904-.741 1.88 1.88 0 0 1-.318-1.073c0-.624.232-1.124.695-1.501.464-.378 1.194-.566 2.19-.566h1.795v-.104c0-.485-.145-.858-.436-1.118-.29-.26-.721-.39-1.293-.39-.39 0-.774.06-1.15.182-.378.121-.696.29-.956.507l-.637-1.183c.364-.277.801-.49 1.313-.637a5.842 5.842 0 0 1 1.625-.221zm-.221 5.928c.407 0 .769-.093 1.085-.28a1.52 1.52 0 0 0 .67-.799v-.806h-1.677c-.936 0-1.404.308-1.404.923 0 .295.117.529.35.702.235.173.56.26.976.26zm12.592-5.85v5.889c0 2.444-1.248 3.666-3.744 3.666-.667 0-1.3-.084-1.898-.253-.598-.17-1.092-.414-1.482-.735l.728-1.222c.303.251.687.453 1.15.605a4.51 4.51 0 0 0 1.411.227c.763 0 1.322-.173 1.677-.52.355-.347.533-.875.533-1.586v-.364a2.671 2.671 0 0 1-1.014.689 3.573 3.573 0 0 1-1.313.234c-.659 0-1.254-.14-1.788-.423a3.174 3.174 0 0 1-1.26-1.189c-.308-.511-.462-1.096-.462-1.755 0-.659.154-1.241.461-1.749.308-.507.728-.899 1.261-1.176a3.814 3.814 0 0 1 1.788-.416c.503 0 .96.082 1.371.247a2.53 2.53 0 0 1 1.034.754v-.923h1.547zm-3.705 5.252c.615 0 1.12-.184 1.514-.552.395-.369.592-.848.592-1.437 0-.58-.197-1.053-.592-1.417-.394-.364-.899-.546-1.514-.546-.624 0-1.133.182-1.528.546-.394.364-.591.836-.591 1.417 0 .59.197 1.068.591 1.437.395.368.904.552 1.528.552zm12.54-1.742c0 .113-.008.273-.026.481h-5.447c.096.511.345.916.748 1.216.403.299.903.448 1.501.448.763 0 1.391-.251 1.885-.754l.871 1.001a2.935 2.935 0 0 1-1.183.845 4.309 4.309 0 0 1-1.612.286c-.762 0-1.434-.152-2.015-.455a3.277 3.277 0 0 1-1.345-1.267c-.317-.542-.475-1.155-.475-1.84 0-.676.154-1.285.462-1.826a3.274 3.274 0 0 1 1.28-1.268c.546-.303 1.162-.455 1.846-.455.676 0 1.28.15 1.814.449.533.299.949.719 1.248 1.26.299.542.448 1.168.448 1.879zm-3.51-2.288c-.52 0-.96.154-1.32.462-.359.307-.578.717-.656 1.228h3.94c-.07-.503-.282-.91-.638-1.222-.355-.312-.797-.468-1.326-.468zm14.01-1.3c.875 0 1.568.253 2.08.76.51.508.767 1.268.767 2.282V134h-1.625v-3.77c0-.607-.135-1.064-.403-1.371-.27-.308-.655-.462-1.157-.462-.546 0-.984.18-1.313.54-.33.36-.494.873-.494 1.54V134h-1.625v-3.77c0-.607-.135-1.064-.403-1.371-.27-.308-.655-.462-1.157-.462-.555 0-.995.178-1.32.533-.325.355-.487.871-.487 1.547V134h-1.625v-6.942h1.547v.884c.26-.312.585-.55.975-.715a3.31 3.31 0 0 1 1.3-.247c.52 0 .981.097 1.384.292.403.196.722.484.956.865a2.893 2.893 0 0 1 1.105-.851c.45-.204.949-.306 1.495-.306zm11.695 3.588c0 .113-.009.273-.026.481h-5.447c.095.511.344.916.747 1.216.403.299.904.448 1.502.448.762 0 1.39-.251 1.885-.754l.87 1.001a2.935 2.935 0 0 1-1.182.845 4.309 4.309 0 0 1-1.612.286c-.763 0-1.435-.152-2.015-.455a3.277 3.277 0 0 1-1.346-1.267c-.316-.542-.474-1.155-.474-1.84 0-.676.154-1.285.461-1.826a3.274 3.274 0 0 1 1.28-1.268c.547-.303 1.162-.455 1.847-.455.676 0 1.28.15 1.813.449.533.299.95.719 1.248 1.26.3.542.449 1.168.449 1.879zm-3.51-2.288c-.52 0-.96.154-1.32.462-.36.307-.578.717-.656 1.228h3.939c-.07-.503-.282-.91-.637-1.222-.356-.312-.798-.468-1.326-.468zm9.186-1.3c.875 0 1.577.256 2.106.767.529.511.793 1.27.793 2.275V134h-1.625v-3.77c0-.607-.143-1.064-.429-1.371-.286-.308-.693-.462-1.222-.462-.598 0-1.07.18-1.417.54-.347.36-.52.877-.52 1.553V134h-1.625v-6.942h1.547v.897a2.54 2.54 0 0 1 1.014-.728 3.65 3.65 0 0 1 1.378-.247zm9.316 6.643c-.19.156-.422.273-.695.351a3.132 3.132 0 0 1-.865.117c-.762 0-1.352-.2-1.768-.598-.416-.399-.624-.98-.624-1.742v-3.341h-1.144v-1.3h1.144v-1.586h1.625v1.586h1.86v1.3h-1.86v3.302c0 .338.083.596.247.774.165.177.403.266.715.266.364 0 .668-.095.91-.286l.455 1.157z"/>
                <g fill-rule="nonzero" opacity=".5">
                    <path d="M493.042 173.936h-9.046a.51.51 0 0 0-.51.511v1.867a.51.51 0 0 0 .51.511h9.045a.512.512 0 0 0 .513-.511v-1.867a.511.511 0 0 0-.512-.511zM481.118 189.171h14.805v-5.33H481.12zM466.132 179.476a4.118 4.118 0 0 0 4.113-4.114 4.117 4.117 0 0 0-4.113-4.113 4.118 4.118 0 0 0-4.114 4.113 4.119 4.119 0 0 0 4.114 4.114zM486.07 179.247h4.898v2.171h-4.898zM457.758 191.595a.512.512 0 0 0-.512.512v1.435c0 .282.23.51.512.51H498.242a.511.511 0 0 0 .512-.51v-1.435a.512.512 0 0 0-.512-.512h-40.485zM472.17 189.171c-.158-4.042-2.803-7.272-6.039-7.272-3.236 0-5.88 3.23-6.04 7.272h12.08zM459.829 196.475h36.34v15.523h-36.34zM459.829 214.422h36.34v3.176h-36.34z"/>
                </g>
            </g>
        </g>
        <g>
            <path stroke="#FFF" stroke-linecap="square" d="M625.5.5v69"/>
            <g transform="translate(607 70)">
                <circle cx="19" cy="19" r="19" fill="#000065" opacity=".137"/>
                <circle cx="19.453" cy="19.453" r="12.547" fill="#FFF" opacity=".231"/>
                <circle cx="19.297" cy="19.297" r="7.422" fill="#3B3B98" opacity=".702"/>
                <circle cx="19.297" cy="19.297" r="5.047" fill="#3B3B98" opacity=".678"/>
                <circle cx="19.297" cy="19.297" r="3.266" fill="#D3CADB" opacity=".418"/>
            </g>
            <g fill="#FFF">
                <path d="M597.222 124.9h1.69v7.67h4.758V134h-6.448v-9.1zm10.863 9.191c-.702 0-1.334-.152-1.898-.455a3.318 3.318 0 0 1-1.32-1.268c-.316-.541-.474-1.154-.474-1.839s.158-1.296.475-1.833a3.331 3.331 0 0 1 1.32-1.261c.563-.303 1.195-.455 1.897-.455.71 0 1.348.152 1.911.455a3.331 3.331 0 0 1 1.32 1.261c.316.537.474 1.148.474 1.833s-.158 1.298-.474 1.84a3.318 3.318 0 0 1-1.32 1.267c-.563.303-1.2.455-1.91.455zm0-1.391c.598 0 1.092-.2 1.482-.598.39-.399.585-.923.585-1.573 0-.65-.195-1.174-.585-1.573-.39-.399-.884-.598-1.482-.598s-1.09.2-1.475.598c-.386.399-.579.923-.579 1.573 0 .65.193 1.174.579 1.573.385.399.877.598 1.475.598zm12.333-5.642v5.889c0 2.444-1.248 3.666-3.744 3.666-.668 0-1.3-.084-1.898-.253-.598-.17-1.092-.414-1.482-.735l.728-1.222c.303.251.686.453 1.15.605a4.51 4.51 0 0 0 1.41.227c.763 0 1.322-.173 1.678-.52.355-.347.533-.875.533-1.586v-.364a2.671 2.671 0 0 1-1.014.689 3.573 3.573 0 0 1-1.313.234c-.66 0-1.255-.14-1.788-.423a3.174 3.174 0 0 1-1.261-1.189c-.308-.511-.461-1.096-.461-1.755 0-.659.153-1.241.461-1.749.308-.507.728-.899 1.261-1.176a3.814 3.814 0 0 1 1.788-.416c.502 0 .96.082 1.371.247a2.53 2.53 0 0 1 1.034.754v-.923h1.547zm-3.705 5.252c.615 0 1.12-.184 1.514-.552.394-.369.592-.848.592-1.437 0-.58-.198-1.053-.592-1.417-.394-.364-.9-.546-1.514-.546-.624 0-1.134.182-1.528.546-.394.364-.591.836-.591 1.417 0 .59.197 1.068.591 1.437.394.368.904.552 1.528.552zm6.014-5.252h1.625V134h-1.625v-6.942zm.819-1.144c-.295 0-.542-.093-.741-.28a.913.913 0 0 1-.3-.695c0-.277.1-.51.3-.695.2-.187.446-.28.74-.28.295 0 .542.089.742.267.2.177.299.4.299.669a.98.98 0 0 1-.293.722 1.012 1.012 0 0 1-.747.292zm5.26 8.177a6.215 6.215 0 0 1-1.65-.221c-.538-.147-.967-.334-1.288-.559l.624-1.235c.312.208.687.375 1.125.5.437.126.868.189 1.293.189.97 0 1.456-.256 1.456-.767 0-.243-.123-.412-.37-.507-.247-.095-.644-.186-1.19-.273a9.65 9.65 0 0 1-1.397-.299 2.145 2.145 0 0 1-.936-.591c-.265-.282-.397-.674-.397-1.177 0-.659.275-1.185.826-1.58.55-.394 1.293-.591 2.23-.591.476 0 .952.054 1.43.163.476.108.866.253 1.17.435l-.625 1.235c-.59-.347-1.252-.52-1.989-.52-.477 0-.838.071-1.085.215-.247.143-.37.331-.37.565 0 .26.131.444.396.552.264.109.673.21 1.228.306a9.48 9.48 0 0 1 1.365.299c.355.113.66.303.917.572.255.269.383.65.383 1.144 0 .65-.282 1.17-.845 1.56-.563.39-1.33.585-2.3.585zm8.9-.468c-.19.156-.422.273-.695.351a3.132 3.132 0 0 1-.865.117c-.762 0-1.352-.2-1.768-.598-.416-.399-.624-.98-.624-1.742v-3.341h-1.144v-1.3h1.144v-1.586h1.625v1.586h1.86v1.3h-1.86v3.302c0 .338.083.596.247.774.165.177.403.266.715.266.364 0 .668-.095.91-.286l.455 1.157zm1.517-6.565h1.625V134h-1.625v-6.942zm.819-1.144c-.295 0-.542-.093-.741-.28a.913.913 0 0 1-.3-.695c0-.277.1-.51.3-.695.199-.187.446-.28.74-.28.295 0 .542.089.742.267.199.177.299.4.299.669a.98.98 0 0 1-.293.722 1.012 1.012 0 0 1-.747.292zm6.3 8.177c-.72 0-1.365-.152-1.937-.455a3.341 3.341 0 0 1-1.34-1.267c-.32-.542-.48-1.155-.48-1.84s.16-1.296.48-1.833c.322-.537.766-.958 1.333-1.261.568-.303 1.216-.455 1.944-.455.685 0 1.285.139 1.8.416a2.7 2.7 0 0 1 1.164 1.196l-1.248.728c-.2-.32-.449-.561-.748-.721a2.044 2.044 0 0 0-.981-.241c-.607 0-1.11.197-1.508.592-.399.394-.598.92-.598 1.579 0 .659.197 1.185.591 1.58.395.394.9.591 1.515.591.355 0 .682-.08.981-.24.3-.16.549-.401.748-.722l1.248.728c-.269.52-.66.92-1.177 1.203-.515.281-1.111.422-1.787.422zm6.69 0a6.215 6.215 0 0 1-1.65-.221c-.538-.147-.967-.334-1.288-.559l.624-1.235c.312.208.687.375 1.125.5.437.126.869.189 1.293.189.97 0 1.456-.256 1.456-.767 0-.243-.123-.412-.37-.507-.247-.095-.644-.186-1.19-.273a9.65 9.65 0 0 1-1.397-.299 2.145 2.145 0 0 1-.936-.591c-.265-.282-.397-.674-.397-1.177 0-.659.275-1.185.826-1.58.55-.394 1.293-.591 2.23-.591.476 0 .953.054 1.43.163.476.108.866.253 1.17.435l-.625 1.235c-.59-.347-1.252-.52-1.989-.52-.476 0-.838.071-1.085.215-.247.143-.37.331-.37.565 0 .26.131.444.396.552.264.109.674.21 1.228.306a9.48 9.48 0 0 1 1.365.299c.356.113.661.303.917.572.255.269.383.65.383 1.144 0 .65-.281 1.17-.845 1.56-.563.39-1.33.585-2.3.585z"/>
                <path d="M626.735 189.882h16.177c.893 0 1.617.725 1.617 1.618v15.368h-19.411V191.5c0-.893.724-1.618 1.617-1.618zm5.662 8.089h4.853a.809.809 0 0 0 .809-.81v-1.617a.809.809 0 0 0-.809-.809h-4.853a.809.809 0 0 0-.809.81v1.617c0 .446.362.809.81.809zm-28.309-12.942h16.177c.893 0 1.617.725 1.617 1.618v20.22h-19.411v-20.22c0-.893.724-1.618 1.617-1.618zm5.662 8.089h4.853a.809.809 0 0 0 .809-.81v-1.617a.809.809 0 0 0-.81-.809h-4.852a.809.809 0 0 0-.809.81v1.617c0 .447.362.809.809.809zM596 214.148a4.856 4.856 0 0 1 4.856-4.854h45.288a4.857 4.857 0 0 1 4.856 4.853 4.856 4.856 0 0 1-4.856 4.853h-45.288a4.857 4.857 0 0 1-4.856-4.853zm4.853 1.617a1.618 1.618 0 1 0 0-3.236 1.618 1.618 0 0 0 0 3.236zm45.294 0a1.618 1.618 0 1 0 0-3.236 1.618 1.618 0 0 0 0 3.236zm-11.323 0a1.618 1.618 0 1 0 0-3.236 1.618 1.618 0 0 0 0 3.236zm-22.648 0a1.618 1.618 0 1 0 0-3.236 1.618 1.618 0 0 0 0 3.236zm11.324 0a1.618 1.618 0 1 0 0-3.236 1.618 1.618 0 0 0 0 3.236zm6.748-40.164a6.44 6.44 0 0 1 2.958-1.69v-9.102c0-.447.362-.809.809-.809h1.617c.447 0 .81.362.81.809v9.101a6.472 6.472 0 0 1 3.519 10.203.751.751 0 0 1-1.128.073l-1.214-1.214a.809.809 0 0 1-.09-1.037 2.45 2.45 0 0 0 .172-.277 3.237 3.237 0 1 0-5.722.062c.035.063.08.136.137.217a.809.809 0 0 1-.09 1.037l-1.165 1.165a.809.809 0 0 1-1.236-.108 6.472 6.472 0 0 1 .623-8.43z" opacity=".5"/>
            </g>
        </g>
        <g>
            <path stroke="#FFF" stroke-linecap="square" d="M780.5.5v69"/>
            <g transform="translate(762 70)">
                <circle cx="19" cy="19" r="19" fill="#000065" opacity=".137"/>
                <circle cx="19.453" cy="19.453" r="12.547" fill="#FFF" opacity=".231"/>
                <circle cx="19.297" cy="19.297" r="7.422" fill="#3B3B98" opacity=".702"/>
                <circle cx="19.297" cy="19.297" r="5.047" fill="#3B3B98" opacity=".678"/>
                <circle cx="19.297" cy="19.297" r="3.266" fill="#D3CADB" opacity=".418"/>
            </g>
            <g fill="#FFF">
                <path d="M708.521 124.9l-3.016 9.1h-1.794l-2.249-6.734-2.288 6.734h-1.807l-3.016-9.1h1.755l2.262 6.916 2.353-6.916h1.56l2.301 6.955 2.327-6.955h1.612zm3.531 2.08c1.023 0 1.805.245 2.347.735.541.49.812 1.228.812 2.216V134h-1.534v-.845a1.89 1.89 0 0 1-.851.696c-.369.16-.813.24-1.333.24s-.975-.089-1.365-.266a2.11 2.11 0 0 1-.903-.741 1.88 1.88 0 0 1-.319-1.073c0-.624.232-1.124.696-1.501.463-.378 1.194-.566 2.19-.566h1.794v-.104c0-.485-.145-.858-.435-1.118-.29-.26-.722-.39-1.294-.39-.39 0-.773.06-1.15.182-.377.121-.696.29-.956.507l-.637-1.183c.364-.277.802-.49 1.313-.637a5.842 5.842 0 0 1 1.625-.221zm-.22 5.928c.407 0 .768-.093 1.085-.28a1.52 1.52 0 0 0 .67-.799v-.806h-1.678c-.936 0-1.404.308-1.404.923 0 .295.117.529.351.702.234.173.56.26.975.26zm7.184-4.836c.468-.728 1.29-1.092 2.47-1.092v1.547a2.063 2.063 0 0 0-.377-.039c-.633 0-1.127.184-1.482.553-.356.368-.533.899-.533 1.592V134h-1.625v-6.942h1.547v1.014zm10.486 2.496c0 .113-.009.273-.026.481h-5.447c.095.511.344.916.747 1.215.403.3.904.449 1.502.449.762 0 1.39-.251 1.885-.754l.87 1.001a2.935 2.935 0 0 1-1.182.845 4.309 4.309 0 0 1-1.612.286c-.763 0-1.435-.152-2.015-.455a3.277 3.277 0 0 1-1.346-1.268c-.316-.541-.474-1.154-.474-1.839 0-.676.154-1.285.461-1.827a3.274 3.274 0 0 1 1.28-1.267c.547-.303 1.162-.455 1.847-.455.676 0 1.28.15 1.813.448.533.3.95.72 1.248 1.261.3.542.449 1.168.449 1.879zm-3.51-2.288c-.52 0-.96.154-1.32.462-.36.307-.578.717-.656 1.228h3.939c-.07-.503-.282-.91-.637-1.222-.356-.312-.798-.468-1.326-.468zm9.186-1.3c.875 0 1.577.256 2.106.767.529.511.793 1.27.793 2.275V134h-1.625v-3.77c0-.607-.143-1.064-.429-1.372-.286-.307-.693-.461-1.222-.461-.598 0-1.07.18-1.417.54-.347.36-.52.877-.52 1.553V134h-1.625v-9.646h1.625v3.51c.269-.286.6-.505.995-.656a3.65 3.65 0 0 1 1.32-.228zm8.328 7.111c-.702 0-1.334-.152-1.898-.455a3.318 3.318 0 0 1-1.32-1.268c-.315-.541-.474-1.154-.474-1.839s.159-1.296.475-1.833a3.331 3.331 0 0 1 1.32-1.261c.563-.303 1.195-.455 1.897-.455.711 0 1.348.152 1.911.455a3.331 3.331 0 0 1 1.32 1.261c.316.537.474 1.148.474 1.833s-.158 1.298-.474 1.84a3.318 3.318 0 0 1-1.32 1.267c-.563.303-1.2.455-1.91.455zm0-1.391c.598 0 1.092-.2 1.482-.598.39-.399.585-.923.585-1.573 0-.65-.195-1.174-.585-1.573-.39-.399-.884-.598-1.482-.598s-1.09.2-1.475.598c-.386.399-.579.923-.579 1.573 0 .65.193 1.174.579 1.573.386.399.877.598 1.475.598zm12.164-5.642V134h-1.547v-.884c-.26.312-.585.552-.975.722-.39.169-.81.253-1.261.253-.928 0-1.658-.258-2.19-.773-.534-.516-.8-1.281-.8-2.295v-3.965h1.625v3.744c0 .624.14 1.09.422 1.398.282.307.683.461 1.203.461.58 0 1.042-.18 1.384-.54.342-.36.514-.877.514-1.553v-3.51h1.625zm4.454 7.033a6.215 6.215 0 0 1-1.651-.221c-.537-.147-.966-.334-1.287-.559l.624-1.235c.312.208.687.375 1.124.5.438.126.87.189 1.294.189.97 0 1.456-.256 1.456-.767 0-.243-.124-.412-.37-.507-.248-.095-.644-.186-1.19-.273a9.65 9.65 0 0 1-1.398-.299 2.145 2.145 0 0 1-.936-.591c-.264-.282-.396-.674-.396-1.177 0-.659.275-1.185.825-1.58.55-.394 1.294-.591 2.23-.591.477 0 .953.054 1.43.163.477.108.867.253 1.17.435l-.624 1.235c-.59-.347-1.252-.52-1.99-.52-.476 0-.838.071-1.085.215-.247.143-.37.331-.37.565 0 .26.132.444.396.552.265.109.674.21 1.229.306a9.48 9.48 0 0 1 1.365.299c.355.113.66.303.916.572.256.269.384.65.384 1.144 0 .65-.282 1.17-.845 1.56-.563.39-1.33.585-2.301.585zm11.253-3.523c0 .113-.008.273-.026.481h-5.447c.096.511.345.916.748 1.215.403.3.903.449 1.501.449.763 0 1.391-.251 1.885-.754l.871 1.001a2.935 2.935 0 0 1-1.183.845 4.309 4.309 0 0 1-1.612.286c-.762 0-1.434-.152-2.015-.455a3.277 3.277 0 0 1-1.345-1.268c-.317-.541-.475-1.154-.475-1.839 0-.676.154-1.285.462-1.827a3.274 3.274 0 0 1 1.28-1.267c.546-.303 1.162-.455 1.846-.455.676 0 1.28.15 1.814.448.533.3.949.72 1.248 1.261.299.542.448 1.168.448 1.879zm-3.51-2.288c-.52 0-.96.154-1.32.462-.359.307-.578.717-.656 1.228h3.94c-.07-.503-.282-.91-.638-1.222-.355-.312-.797-.468-1.326-.468zm17.528 5.72l-.013-6.032-2.99 4.992h-.754l-2.99-4.914V134h-1.612v-9.1h1.39l3.615 6.032 3.549-6.032h1.39l.014 9.1h-1.6zm6.729-7.02c1.023 0 1.805.245 2.346.734.542.49.813 1.229.813 2.217V134h-1.534v-.845a1.89 1.89 0 0 1-.852.696c-.368.16-.812.24-1.332.24s-.975-.089-1.365-.266a2.11 2.11 0 0 1-.904-.741 1.88 1.88 0 0 1-.318-1.073c0-.624.232-1.124.695-1.501.464-.378 1.194-.566 2.191-.566h1.794v-.104c0-.485-.145-.858-.436-1.118-.29-.26-.721-.39-1.293-.39-.39 0-.773.06-1.15.182-.378.121-.696.29-.956.507l-.637-1.183c.364-.277.802-.49 1.313-.637a5.842 5.842 0 0 1 1.625-.221zm-.221 5.928c.407 0 .77-.093 1.085-.28a1.52 1.52 0 0 0 .67-.799v-.806h-1.677c-.936 0-1.404.308-1.404.923 0 .295.117.529.351.702.234.173.559.26.975.26zm9.576-5.928c.876 0 1.578.256 2.106.767.529.511.793 1.27.793 2.275V134h-1.625v-3.77c0-.607-.143-1.064-.429-1.371-.286-.308-.693-.462-1.222-.462-.598 0-1.07.18-1.417.54-.346.36-.52.877-.52 1.553V134h-1.625v-6.942h1.547v.897a2.54 2.54 0 0 1 1.014-.728 3.65 3.65 0 0 1 1.378-.247zm7.796 0c1.022 0 1.804.245 2.346.735s.813 1.228.813 2.216V134H810.9v-.845a1.89 1.89 0 0 1-.852.696c-.368.16-.812.24-1.332.24s-.975-.089-1.365-.266a2.11 2.11 0 0 1-.904-.741 1.88 1.88 0 0 1-.318-1.073c0-.624.231-1.124.695-1.501.464-.378 1.194-.566 2.19-.566h1.795v-.104c0-.485-.146-.858-.436-1.118-.29-.26-.721-.39-1.293-.39-.39 0-.774.06-1.151.182-.377.121-.695.29-.955.507l-.637-1.183c.364-.277.801-.49 1.313-.637a5.842 5.842 0 0 1 1.625-.221zm-.221 5.928c.407 0 .769-.093 1.085-.28a1.52 1.52 0 0 0 .67-.799v-.806h-1.677c-.936 0-1.404.308-1.404.923 0 .295.117.529.35.702.235.173.56.26.976.26zm12.592-5.85v5.889c0 2.444-1.248 3.666-3.744 3.666-.668 0-1.3-.084-1.898-.253-.598-.17-1.092-.414-1.482-.735l.728-1.222c.303.251.687.453 1.15.605a4.51 4.51 0 0 0 1.41.227c.763 0 1.322-.173 1.678-.52.355-.347.533-.875.533-1.586v-.364a2.671 2.671 0 0 1-1.014.689 3.573 3.573 0 0 1-1.313.234c-.659 0-1.255-.14-1.788-.423a3.174 3.174 0 0 1-1.26-1.189c-.308-.511-.462-1.096-.462-1.755 0-.659.154-1.241.461-1.749.308-.507.728-.899 1.261-1.176a3.814 3.814 0 0 1 1.788-.416c.502 0 .96.082 1.371.247a2.53 2.53 0 0 1 1.034.754v-.923h1.547zm-3.705 5.252c.615 0 1.12-.184 1.514-.552.395-.369.592-.848.592-1.437 0-.58-.197-1.053-.592-1.417-.394-.364-.899-.546-1.514-.546-.624 0-1.133.182-1.528.546-.394.364-.591.836-.591 1.417 0 .59.197 1.068.591 1.437.395.368.904.552 1.528.552zm12.54-1.742c0 .113-.009.273-.026.481h-5.447c.095.511.345.916.748 1.216.403.299.903.448 1.501.448.763 0 1.391-.251 1.885-.754l.871 1.001a2.935 2.935 0 0 1-1.183.845 4.309 4.309 0 0 1-1.612.286c-.763 0-1.434-.152-2.015-.455a3.277 3.277 0 0 1-1.345-1.267c-.317-.542-.475-1.155-.475-1.84 0-.676.154-1.285.462-1.826a3.274 3.274 0 0 1 1.28-1.268c.546-.303 1.161-.455 1.846-.455.676 0 1.28.15 1.814.449.533.299.949.719 1.248 1.26.299.542.448 1.168.448 1.879zm-3.51-2.288c-.52 0-.96.154-1.32.462-.36.307-.578.717-.656 1.228h3.94c-.07-.503-.283-.91-.638-1.222-.355-.312-.797-.468-1.326-.468zm14.01-1.3c.875 0 1.568.253 2.08.76.51.508.766 1.268.766 2.282V134h-1.625v-3.77c0-.607-.134-1.064-.403-1.371-.268-.308-.654-.462-1.157-.462-.546 0-.983.18-1.313.54-.329.36-.494.873-.494 1.54V134h-1.625v-3.77c0-.607-.134-1.064-.403-1.371-.268-.308-.654-.462-1.157-.462-.554 0-.994.178-1.32.533-.324.355-.487.871-.487 1.547V134h-1.625v-6.942h1.547v.884c.26-.312.585-.55.975-.715a3.31 3.31 0 0 1 1.3-.247c.52 0 .982.097 1.385.292.403.196.721.484.955.865a2.893 2.893 0 0 1 1.105-.851c.451-.204.95-.306 1.495-.306zm11.695 3.588c0 .113-.009.273-.026.481h-5.447c.095.511.344.916.747 1.216.403.299.904.448 1.502.448.762 0 1.39-.251 1.885-.754l.87 1.001a2.935 2.935 0 0 1-1.182.845 4.309 4.309 0 0 1-1.612.286c-.763 0-1.435-.152-2.015-.455a3.277 3.277 0 0 1-1.346-1.267c-.316-.542-.474-1.155-.474-1.84 0-.676.153-1.285.461-1.826a3.274 3.274 0 0 1 1.28-1.268c.547-.303 1.162-.455 1.847-.455.676 0 1.28.15 1.813.449.533.299.95.719 1.248 1.26.3.542.449 1.168.449 1.879zm-3.51-2.288c-.52 0-.96.154-1.32.462-.36.307-.578.717-.656 1.228h3.939c-.07-.503-.282-.91-.637-1.222-.356-.312-.798-.468-1.326-.468zm9.186-1.3c.875 0 1.577.256 2.106.767.529.511.793 1.27.793 2.275V134h-1.625v-3.77c0-.607-.143-1.064-.43-1.371-.285-.308-.692-.462-1.221-.462-.598 0-1.07.18-1.417.54-.347.36-.52.877-.52 1.553V134h-1.625v-6.942h1.547v.897a2.54 2.54 0 0 1 1.014-.728 3.65 3.65 0 0 1 1.378-.247zm9.316 6.643c-.19.156-.422.273-.695.351a3.132 3.132 0 0 1-.865.117c-.762 0-1.352-.2-1.768-.598-.416-.399-.624-.98-.624-1.742v-3.341h-1.144v-1.3h1.144v-1.586h1.625v1.586h1.86v1.3h-1.86v3.302c0 .338.083.596.247.774.165.177.403.266.715.266.364 0 .668-.095.91-.286l.455 1.157z"/>
                <g fill-rule="nonzero" opacity=".5">
                    <path d="M823.598 213.476h-3.794c.172.457.27.95.27 1.468 0 .468-.08.916-.221 1.336h3.745c.771 0 1.402-.63 1.402-1.402 0-.772-.63-1.402-1.402-1.402zM795.548 192.445h3.514v-9.353L778.03 175 757 183.092v28.281h3.505v-21.732h35.052zM815.877 212.149a2.798 2.798 0 0 0-2.795 2.794 2.797 2.797 0 0 0 2.795 2.795 2.798 2.798 0 0 0 2.795-2.795 2.798 2.798 0 0 0-2.795-2.794zm0 4.264c-.809 0-1.469-.66-1.469-1.47 0-.807.66-1.468 1.469-1.468s1.468.66 1.468 1.468c0 .81-.66 1.47-1.468 1.47z"/>
                    <path d="M805.371 193.847h-21.708v18.227h2.471a4.182 4.182 0 0 1 3.123-1.402c1.24 0 2.353.543 3.122 1.402h12.992v-18.227zM789.264 212.074h-.014a2.798 2.798 0 0 0-2.788 2.794 2.798 2.798 0 0 0 2.794 2.795 2.799 2.799 0 0 0 2.796-2.795c0-1.538-1.25-2.79-2.788-2.794zm-.007 4.187a1.395 1.395 0 0 1-1.392-1.393c0-.766.625-1.392 1.392-1.392.767 0 1.392.626 1.392 1.392 0 .767-.626 1.393-1.392 1.393zM768.918 204.363l-1.403-1.402-1.402 1.402v-2.804h-2.103v7.01h7.01v-7.01h-2.102zM777.33 204.363l-1.402-1.402-1.402 1.402v-2.804h-2.103v7.01h7.01v-7.01h-2.103zM775.227 193.146h-2.103v2.804l-1.402-1.402-1.402 1.402v-2.804h-2.104v7.01H775.227zM823.598 210.475c0-1.645-.785-3.119-2.01-4.01h-12.01a.7.7 0 0 1-.702-.7v-4.907a.7.7 0 1 1 1.402 0v4.206h7.717l-5.607-7.004h-5.615c-.014 5.329.004 8.683.004 14.014h6.047a4.179 4.179 0 0 1 3.053-1.327c1.203 0 2.287.512 3.053 1.327h4.668v-1.599zM785.303 213.476h-3.066c-.771 0-1.402.63-1.402 1.402 0 .771.631 1.402 1.402 1.402h3.073a4.159 4.159 0 0 1-.25-1.412c0-.488.088-.957.243-1.392zM793.211 213.476c.154.435.243.904.243 1.392 0 .496-.092.97-.25 1.412h18.699a4.157 4.157 0 0 1-.223-1.336c0-.517.1-1.01.271-1.468h-18.74z"/>
                </g>
            </g>
        </g>
        <g>
            <path stroke="#FFF" stroke-linecap="square" d="M927.5.5v69"/>
            <g transform="translate(909 70)">
                <circle cx="19" cy="19" r="19" fill="#000065" opacity=".137"/>
                <circle cx="19.453" cy="19.453" r="12.547" fill="#FFF" opacity=".231"/>
                <circle cx="19.297" cy="19.297" r="7.422" fill="#3B3B98" opacity=".702"/>
                <circle cx="19.297" cy="19.297" r="5.047" fill="#3B3B98" opacity=".678"/>
                <circle cx="19.297" cy="19.297" r="3.266" fill="#D3CADB" opacity=".418"/>
            </g>
            <g fill="#FFF">
                <path d="M902.176 134l-1.859-2.665a3.466 3.466 0 0 1-.351.013h-2.054V134h-1.69v-9.1h3.744c.789 0 1.475.13 2.06.39.586.26 1.034.633 1.346 1.118.312.485.468 1.062.468 1.729 0 .685-.167 1.274-.5 1.768-.334.494-.813.862-1.437 1.105l2.093 2.99h-1.82zm-.039-5.863c0-.58-.19-1.027-.572-1.339-.381-.312-.94-.468-1.677-.468h-1.976v3.627h1.976c.737 0 1.296-.158 1.677-.474.381-.317.572-.765.572-1.346zm10.135 2.431c0 .113-.008.273-.026.481H906.8c.096.511.345.916.748 1.216.403.299.903.448 1.501.448.763 0 1.391-.251 1.885-.754l.871 1.001a2.935 2.935 0 0 1-1.183.845 4.309 4.309 0 0 1-1.612.286c-.762 0-1.434-.152-2.015-.455a3.277 3.277 0 0 1-1.345-1.268c-.317-.541-.475-1.154-.475-1.839 0-.676.154-1.285.462-1.827a3.274 3.274 0 0 1 1.28-1.267c.546-.303 1.162-.455 1.846-.455.676 0 1.28.15 1.814.448.533.3.949.72 1.248 1.261.299.542.448 1.168.448 1.879zm-3.51-2.288c-.52 0-.96.154-1.32.462-.359.307-.578.717-.656 1.228h3.94c-.07-.503-.282-.91-.638-1.222-.355-.312-.797-.468-1.326-.468zm9.096-1.3c.676 0 1.28.147 1.813.442.533.295.951.71 1.255 1.248.303.537.455 1.157.455 1.859s-.152 1.324-.455 1.866c-.304.541-.722.96-1.255 1.254-.533.295-1.137.442-1.813.442-.936 0-1.677-.312-2.223-.936v3.367h-1.625v-9.464h1.547v.91c.268-.33.6-.576.994-.741.394-.165.83-.247 1.307-.247zm-.182 5.72c.598 0 1.09-.2 1.475-.598.386-.399.579-.923.579-1.573 0-.65-.193-1.174-.579-1.573-.386-.399-.877-.598-1.475-.598-.39 0-.741.089-1.053.266a1.926 1.926 0 0 0-.741.761c-.182.33-.273.71-.273 1.144 0 .433.09.815.273 1.144.182.33.429.583.74.76a2.09 2.09 0 0 0 1.054.267zm8.549 1.391c-.702 0-1.335-.152-1.898-.455a3.318 3.318 0 0 1-1.32-1.268c-.316-.541-.474-1.154-.474-1.839s.158-1.296.474-1.833a3.331 3.331 0 0 1 1.32-1.261c.563-.303 1.196-.455 1.898-.455.71 0 1.347.152 1.91.455a3.331 3.331 0 0 1 1.32 1.261c.317.537.475 1.148.475 1.833s-.158 1.298-.475 1.84a3.318 3.318 0 0 1-1.32 1.267c-.563.303-1.2.455-1.91.455zm0-1.391c.598 0 1.092-.2 1.482-.598.39-.399.585-.923.585-1.573 0-.65-.195-1.174-.585-1.573-.39-.399-.884-.598-1.482-.598s-1.09.2-1.476.598c-.385.399-.578.923-.578 1.573 0 .65.193 1.174.578 1.573.386.399.878.598 1.476.598zm6.99-4.628c.467-.728 1.29-1.092 2.47-1.092v1.547a2.063 2.063 0 0 0-.378-.039c-.633 0-1.127.184-1.482.553-.355.368-.533.899-.533 1.592V134h-1.625v-6.942h1.547v1.014zm8.457 5.551c-.19.156-.422.273-.695.351a3.132 3.132 0 0 1-.865.117c-.762 0-1.352-.2-1.768-.598-.416-.399-.624-.98-.624-1.742v-3.341h-1.144v-1.3h1.144v-1.586h1.625v1.586h1.86v1.3h-1.86v3.302c0 .338.083.596.247.774.165.177.403.266.715.266.364 0 .668-.095.91-.286l.455 1.157zm1.517-6.565h1.625V134h-1.625v-6.942zm.819-1.144c-.295 0-.542-.093-.741-.28a.913.913 0 0 1-.3-.695c0-.277.1-.51.3-.696.199-.186.446-.279.74-.279.295 0 .542.089.742.266.199.178.299.401.299.67a.98.98 0 0 1-.293.721 1.012 1.012 0 0 1-.747.293zm7.054 1.066c.875 0 1.577.256 2.106.767.529.511.793 1.27.793 2.275V134h-1.625v-3.77c0-.607-.143-1.064-.43-1.372-.285-.307-.692-.461-1.221-.461-.598 0-1.07.18-1.417.54-.347.36-.52.877-.52 1.553V134h-1.625v-6.942h1.547v.897a2.54 2.54 0 0 1 1.014-.728 3.65 3.65 0 0 1 1.378-.247zm12.098.078v5.889c0 2.444-1.248 3.666-3.744 3.666-.667 0-1.3-.084-1.898-.253-.598-.17-1.092-.414-1.482-.735l.728-1.222c.304.251.687.453 1.15.604a4.51 4.51 0 0 0 1.411.228c.763 0 1.322-.173 1.677-.52.356-.347.533-.875.533-1.586v-.364a2.671 2.671 0 0 1-1.014.689 3.573 3.573 0 0 1-1.313.234c-.658 0-1.254-.14-1.787-.423a3.174 3.174 0 0 1-1.261-1.189c-.308-.511-.462-1.096-.462-1.755 0-.659.154-1.241.462-1.749.307-.507.728-.899 1.26-1.176a3.814 3.814 0 0 1 1.788-.416c.503 0 .96.082 1.372.247a2.53 2.53 0 0 1 1.033.754v-.923h1.547zm-3.705 5.252c.616 0 1.12-.184 1.515-.553.394-.368.591-.847.591-1.436 0-.58-.197-1.053-.591-1.417-.395-.364-.9-.546-1.515-.546-.624 0-1.133.182-1.527.546-.395.364-.592.836-.592 1.417 0 .59.197 1.068.592 1.437.394.368.903.552 1.527.552z"/>
                <g fill-rule="nonzero" opacity=".5">
                    <path d="M943.714 203.248l-.316.316c-.252.252-.487.504-.755.756-.214.209-.418.417-.627.626-.15.15-.284.3-.445.445-.696.686-1.36 1.366-2.046 2.046l-.89.89-.074.075c-.06.059-.113.118-.172.171-.209.198-.428.273-.69.316-.017 0-.028.006-.044.006-.016 0-.032.005-.053.005a.314.314 0 0 0-.07.01c-1.452.177-2.909.333-4.366.494-.209.021-.418.048-.621.07-.53.058-1.13-.536-1.072-1.072l.032-.295c.15-1.34.3-2.673.456-4.012.027-.257.043-.547.09-.82v-.005c.017-.257.124-.515.306-.697l.006-.005c.117-.129.24-.247.364-.37l.059-.059.744-.744 4.822-4.822c1.071-1.066 2.137-2.137 3.203-3.203l.322-.322.112-.112c.215-.215.429-.429.643-.648.36-.36.691-.713 1.066-1.072v-9.241c0-.729.043-1.473 0-2.202-.08-1.296-.836-2.475-2.24-2.475h-5.297v1.548c0 .199.01.402 0 .595-.011.16-.027.322-.07.482-.268 1.034-1.168 1.736-2.202 1.86-.305.031-.616.015-.921.015h-12.772c-.31 0-.626.006-.937 0a2.59 2.59 0 0 1-2.116-1.146 2.53 2.53 0 0 1-.407-1.21 3.671 3.671 0 0 1-.016-.344v-1.794h-3.734c-.643 0-1.388-.091-2.015.075-1.173.305-1.901 1.484-1.907 2.646 0 .696-.005 1.393-.005 2.09v32.014c0 .52-.038 1.055.01 1.57.124 1.322 1.163 2.42 2.524 2.426h27.466c.809 0 1.612.005 2.421 0 1.163-.005 2.01-.857 2.18-1.987.07-.483.054-.96.054-1.442v-11.448zm-27.744-13.355h.037c.841-.022 1.688 0 2.529 0h18.273c.6 0 1.045.493 1.071 1.071.027.579-.509 1.072-1.071 1.072h-.038c-.84.021-1.687 0-2.528 0H915.97c-.6 0-1.045-.488-1.072-1.072-.027-.578.514-1.071 1.072-1.071zm10.607 19.071H915.97c-.6 0-1.045-.493-1.072-1.071-.027-.579.51-1.072 1.072-1.072h10.607c.6 0 1.044.493 1.071 1.072.027.578-.509 1.071-1.071 1.071zm1.66-8.464H915.97c-.6 0-1.045-.493-1.072-1.071-.027-.579.51-1.072 1.072-1.072h12.267c.6 0 1.045.493 1.072 1.072.027.578-.509 1.071-1.071 1.071z"/>
                    <path d="M934.029 175.343c-.006.032-.011.064-.011.096v3.718c0 .06-.006.16 0 .23-.006.022-.01.043-.016.06a.134.134 0 0 0-.022.042c0 .006-.005.011-.005.011l-.064.064c-.006.006-.006.011-.011.011-.016.01-.037.021-.059.032.01 0 .022-.005.027-.005l-.006.005c-.01 0-.02.006-.048.01a.117.117 0 0 1 .027-.015.282.282 0 0 0-.08.027c-.016.005-.038.01-.048.016l-.006.005h-14.454a.42.42 0 0 1-.074-.01c-.022-.006-.054-.022-.08-.027-.012-.006-.017-.011-.022-.011l-.032-.016c-.006-.006-.016-.011-.022-.016-.005 0-.005-.006-.01-.011l-.065-.064c-.016-.022-.032-.054-.043-.075a.565.565 0 0 0-.026-.102s0-.006-.006-.006v-.037c0-.054-.01-.107-.01-.16 0-.006-.006-.011-.006-.017v-3.54c0-.033.01-.065.01-.097 0-.011 0-.022.006-.038 0 .016.01-.048.022-.107a.49.49 0 0 0 .048-.091c0-.005.005-.01.005-.016l.016-.016c.016-.016.038-.032.054-.048a.163.163 0 0 0 .037-.027c0 .016.166-.06.188-.07-.01 0-.038 0-.064.006a.42.42 0 0 1 .075-.011h11.753c.89 0 1.779-.01 2.668.005h.037c-.07 0 .043.027.108.038l.064.032c.005 0 .01.005.016.005l.016.016.064.07c0 .005.006.005.006.01l.005.006s.005-.005.005-.01c.011.01.027.015.027.02v.011s-.005.006-.005.011c0 0-.006 0-.01-.005 0 .005.004.01.004.01 0 .038.006.065.017.08zM950.957 192.984l-1.886 1.88-4.001 4.002-2.952 2.952-.225.225-1.629 1.628-2.78 2.78-.364.365h-.011c-1.12.129-2.24.252-3.354.38.124-1.076.241-2.153.365-3.235l.016-.129 2.694-2.694 4.999-4.999c.487-.487.975-.97 1.457-1.457l.739-.74c1.318-1.317 2.641-2.624 3.948-3.947.032.026.054.048.064.053.343.348.692.691 1.034 1.034l1.291 1.291.461.46c.038.033.086.097.134.15z"/>
                </g>
            </g>
        </g>
        <path stroke="#FFF" stroke-linecap="square" d="M50.5.5h877"/>
    </g>
</svg>
