<svg xmlns="http://www.w3.org/2000/svg" width="22" height="26" viewBox="0 0 22 26">
    <g fill="#6D6DC9" fill-rule="nonzero">
        <path d="M17.39 14.588c-1.492.34-4.164.681-5.08.393-.393-.183-1.362-1.257-1.886-1.833A25.964 25.964 0 0 0 9.01 11.68c-.76-.76-1.362-1.283-2.462-1.571-1.336-.341-4.688-.734-5.631 1.492C-.08 13.933.079 20.01.13 24.331c0 .367.236.68.629.68h7.15c.445 0 .602-.235.628-.575.026-.236.262-4.348.42-7.281.68.655 1.361 1.205 2.12 1.44.708.236 1.546.315 2.41.315 2.043 0 4.19-.446 4.74-.577 1.022-.235 1.677-1.257 1.441-2.278a1.884 1.884 0 0 0-2.279-1.467z"/>
        <circle cx="5.055" cy="4.479" r="4.348"/>
        <path d="M20.874 3.955H19.8V3.3a.414.414 0 0 0-.419-.419h-.524a.414.414 0 0 0-.419.419v.655h-2.514V3.3a.414.414 0 0 0-.42-.419h-.523a.414.414 0 0 0-.42.419v.655h-1.073a1.05 1.05 0 0 0-1.048 1.047v6.26a1.05 1.05 0 0 0 1.048 1.048h7.36a1.05 1.05 0 0 0 1.047-1.048V4.976c.026-.55-.445-1.021-1.021-1.021zm.445 7.28c0 .236-.21.446-.445.446h-7.36a.459.459 0 0 1-.445-.445V6.364h8.25v4.872z"/>
        <path d="M14.221 8.643h1.1a.262.262 0 0 0 .262-.262v-.838a.262.262 0 0 0-.262-.262h-1.1a.262.262 0 0 0-.261.262v.838c0 .13.13.262.261.262zM16.657 8.643h1.1a.262.262 0 0 0 .262-.262v-.838a.262.262 0 0 0-.262-.262h-1.1a.262.262 0 0 0-.262.262v.838c0 .13.105.262.262.262zM19.093 8.643h1.1a.262.262 0 0 0 .262-.262v-.838a.262.262 0 0 0-.262-.262h-1.1a.262.262 0 0 0-.262.262v.838c0 .13.105.262.262.262zM14.221 10.817h1.1a.262.262 0 0 0 .262-.262v-.838a.262.262 0 0 0-.262-.262h-1.1a.262.262 0 0 0-.261.262v.838c0 .157.13.262.261.262zM16.657 10.817h1.1a.262.262 0 0 0 .262-.262v-.838a.262.262 0 0 0-.262-.262h-1.1a.262.262 0 0 0-.262.262v.838c0 .157.105.262.262.262zM19.093 10.817h1.1a.262.262 0 0 0 .262-.262v-.838a.262.262 0 0 0-.262-.262h-1.1a.262.262 0 0 0-.262.262v.838c0 .157.105.262.262.262z"/>
    </g>
</svg>
