<svg xmlns="http://www.w3.org/2000/svg" width="30" height="20" viewBox="0 0 30 20">
    <g fill="#6D6DC9" fill-rule="nonzero">
        <path d="M28.969 12.938l-2.657-.344-1.53-2.688c-.407-.719-1.188-1.156-2.032-1.156h-2.906c-.282 0-.5.219-.5.5v7.906c0 .282.218.5.5.5h3.687c.094 1.188 1.094 2.125 2.282 2.125a2.287 2.287 0 0 0 2.28-2.125h.72a1.04 1.04 0 0 0 1.03-1.031v-2.688c0-.5-.374-.937-.874-1zm-4.563-.438h-3.312c-.063 0-.094-.031-.094-.094v-2.125c0-.062.031-.094.094-.094h1.656c.313 0 .594.157.75.438l1 1.719c.031.062-.031.156-.094.156zm1.407 6.188a1.22 1.22 0 0 1-1.22-1.22 1.22 1.22 0 0 1 1.22-1.218 1.22 1.22 0 0 1 1.218 1.219 1.2 1.2 0 0 1-1.218 1.218zM17.531 15.063H3.406c-.281 0-.5.218-.5.5v1.562c0 .281.219.5.5.5h1.156c.094 1.188 1.094 2.125 2.282 2.125a2.287 2.287 0 0 0 2.281-2.125H17.5c.281 0 .5-.219.5-.5v-1.563c.063-.28-.188-.5-.469-.5zM6.875 18.686a1.22 1.22 0 0 1-1.219-1.218 1.22 1.22 0 0 1 1.219-1.219 1.2 1.2 0 0 1 1.219 1.219 1.22 1.22 0 0 1-1.219 1.218zM4.5 10.469c-.563 0-1.094-.094-1.625-.219v3.063c0 .28.219.5.5.5H17.5c.281 0 .5-.22.5-.5V5.625c0-.281-.219-.5-.5-.5h-7.188c-.218 3-2.75 5.344-5.812 5.344z"/>
        <path d="M8.875 4.594A4.334 4.334 0 0 0 4.531.25C2.125.25.156 2.188.156 4.594A4.334 4.334 0 0 0 4.5 8.937c2.406 0 4.375-1.968 4.375-4.343zM6.062 7.937c.22-.312.375-.687.532-1.125.25.063.468.125.687.22a3.12 3.12 0 0 1-1.218.905zm1.594-1.406c-.281-.125-.593-.218-.906-.312a5.81 5.81 0 0 0 .156-1.313h1.282a3.239 3.239 0 0 1-.532 1.625zm0-3.906c.313.469.5 1.031.532 1.625H6.905c-.031-.469-.062-.906-.156-1.313.313-.093.625-.187.906-.312zm-.406-.531a4.425 4.425 0 0 1-.688.219 3.754 3.754 0 0 0-.53-1.126c.5.25.905.532 1.218.907zM4.844.938c.437.187.843.718 1.125 1.53-.344.063-.75.095-1.125.126V.938zm0 2.28c.437 0 .875-.062 1.281-.155.063.343.125.75.156 1.187H4.844V3.219zm0 1.688H6.28c-.031.438-.062.813-.156 1.188a15.96 15.96 0 0 0-1.281-.157v-1.03zm0 1.688c.375 0 .75.062 1.125.125-.282.812-.688 1.343-1.125 1.531V6.594zM2.969 1.219c-.219.312-.375.687-.531 1.125-.25-.094-.47-.156-.688-.25.344-.375.75-.656 1.219-.875zM1.344 2.625c.281.125.593.219.906.313a5.81 5.81 0 0 0-.156 1.312H.813c.062-.594.25-1.125.53-1.625zm0 3.906a3.239 3.239 0 0 1-.532-1.625h1.282c.031.469.062.907.156 1.313-.313.093-.594.187-.906.312zm.406.532c.219-.094.438-.157.688-.22.124.438.312.813.53 1.126a3.882 3.882 0 0 1-1.218-.907zm2.438 1.156C3.75 8.03 3.344 7.5 3.063 6.688c.343-.063.75-.094 1.124-.125v1.656zm0-2.281c-.438.03-.875.062-1.282.156a11.04 11.04 0 0 1-.156-1.188h1.438v1.032zm0-1.688H2.75c.031-.438.063-.813.156-1.188.406.094.844.126 1.281.157V4.25zm0-1.656c-.375 0-.75-.063-1.125-.125.28-.813.687-1.344 1.124-1.531v1.656z"/>
    </g>
</svg>
