<svg xmlns="http://www.w3.org/2000/svg" width="246" height="60" viewBox="0 0 246 60">
    <g fill="#6D6DC9" fill-rule="nonzero">
        <path d="M240.384 53.651h-50.221a4.898 4.898 0 0 1-4.884-4.884v-5.534c0-.652.57-1.221 1.221-1.221.651 0 1.22.57 1.22 1.22v5.535c0 1.384 1.06 2.442 2.443 2.442h50.22c1.384 0 2.443-1.058 2.443-2.442V22.07c0-1.384-1.059-2.442-2.442-2.442h-50.221c-1.384 0-2.442 1.058-2.442 2.442v3.418c0 .652-.57 1.221-1.221 1.221-.651 0-1.22-.57-1.22-1.22v-3.42a4.898 4.898 0 0 1 4.883-4.883h50.22a4.898 4.898 0 0 1 4.884 4.884v26.616c0 2.767-2.197 4.965-4.883 4.965z"/>
        <path d="M232.977 27.28a1.16 1.16 0 0 1-.977-.49c-.407-.57-.326-1.302.244-1.709l9.36-7.081c.57-.407 1.303-.326 1.71.244.407.57.326 1.303-.244 1.71l-9.36 7.08c-.163.164-.49.245-.733.245zM214.5 41.28c-.244 0-.57-.082-.733-.245l-26.29-21.163c-.489-.407-.57-1.22-.163-1.71.407-.488 1.22-.569 1.71-.162l25.557 20.512 12.617-9.605c.57-.407 1.302-.326 1.709.244.407.57.326 1.302-.244 1.71l-13.43 10.174c-.163.163-.489.244-.733.244zM188.21 52.267c-.326 0-.733-.162-.896-.407-.407-.488-.407-1.302.163-1.709l10.174-8.546c.489-.407 1.302-.407 1.71.162.406.57.406 1.303-.163 1.71l-10.175 8.465c-.244.244-.488.325-.814.325z"/>
        <path d="M202.372 40.384c-.325 0-.732-.163-.977-.407-.407-.489-.325-1.303.163-1.71l4.477-3.744c.488-.407 1.302-.325 1.71.163.406.488.325 1.302-.164 1.71l-4.476 3.744c-.163.162-.407.244-.733.244zM242.337 52.267c-.325 0-.651-.081-.895-.325l-17.256-17.093a1.18 1.18 0 0 1 0-1.71 1.18 1.18 0 0 1 1.71 0l17.255 17.094a1.18 1.18 0 0 1 0 1.709 1.243 1.243 0 0 1-.814.325zM195.78 30.698h-17.827c-.65 0-1.22-.57-1.22-1.221 0-.651.57-1.221 1.22-1.221h17.745c.65 0 1.22.57 1.22 1.22 0 .652-.488 1.222-1.139 1.222zM206.035 59.837h-17.826c-.65 0-1.22-.57-1.22-1.22 0-.652.57-1.222 1.22-1.222h17.744c.652 0 1.221.57 1.221 1.221 0 .651-.488 1.221-1.14 1.221zM221.988 13.442h-17.744c-.651 0-1.22-.57-1.22-1.221 0-.651.569-1.221 1.22-1.221h17.744c.652 0 1.221.57 1.221 1.22 0 .652-.57 1.222-1.22 1.222zM192.605 35.988h-14.652c-.65 0-1.22-.57-1.22-1.22 0-.652.57-1.221 1.22-1.221h14.57c.651 0 1.221.57 1.221 1.22 0 .652-.488 1.221-1.14 1.221zM189.837 41.28h-11.884c-.65 0-1.22-.57-1.22-1.222 0-.651.57-1.22 1.22-1.22h11.884c.651 0 1.221.569 1.221 1.22s-.57 1.221-1.22 1.221z"/>
        <g>
            <circle cx="1.5" cy="38.5" r="1.5"/>
            <circle cx="7.5" cy="36.5" r="1.5"/>
            <circle cx="13.5" cy="33.5" r="1.5"/>
            <circle cx="18.5" cy="29.5" r="1.5"/>
            <circle cx="23.5" cy="25.5" r="1.5"/>
            <circle cx="29.5" cy="22.5" r="1.5"/>
            <circle cx="35.5" cy="18.5" r="1.5"/>
            <circle cx="42.5" cy="17.5" r="1.5"/>
            <circle cx="48.5" cy="19.5" r="1.5"/>
            <circle cx="53.5" cy="23.5" r="1.5"/>
            <circle cx="56.5" cy="28.5" r="1.5"/>
            <circle cx="55.5" cy="33.5" r="1.5"/>
            <circle cx="52.5" cy="38.5" r="1.5"/>
            <circle cx="46.5" cy="41.5" r="1.5"/>
            <circle cx="39.5" cy="40.5" r="1.5"/>
            <circle cx="36.5" cy="35.5" r="1.5"/>
            <circle cx="36.5" cy="29.5" r="1.5"/>
            <circle cx="39.5" cy="23.5" r="1.5"/>
            <circle cx="46.5" cy="12.5" r="1.5"/>
            <circle cx="51.5" cy="7.5" r="1.5"/>
            <circle cx="57.5" cy="3.5" r="1.5"/>
            <circle cx="64.5" cy="1.5" r="1.5"/>
            <circle cx="71.5" cy="1.5" r="1.5"/>
            <circle cx="78.5" cy="3.5" r="1.5"/>
            <circle cx="84.5" cy="7.5" r="1.5"/>
            <circle cx="89.5" cy="12.5" r="1.5"/>
            <circle cx="93.5" cy="17.5" r="1.5"/>
            <circle cx="97.5" cy="22.5" r="1.5"/>
            <circle cx="101.5" cy="27.5" r="1.5"/>
            <circle cx="104.5" cy="32.5" r="1.5"/>
            <circle cx="108.5" cy="37.5" r="1.5"/>
            <circle cx="113.5" cy="41.5" r="1.5"/>
            <circle cx="118.5" cy="45.5" r="1.5"/>
            <circle cx="124.5" cy="48.5" r="1.5"/>
            <circle cx="131.5" cy="51.5" r="1.5"/>
            <circle cx="138.5" cy="52.5" r="1.5"/>
            <circle cx="145.5" cy="52.5" r="1.5"/>
            <circle cx="151.5" cy="51.5" r="1.5"/>
            <circle cx="156.5" cy="49.5" r="1.5"/>
            <circle cx="161.5" cy="46.5" r="1.5"/>
            <circle cx="166.5" cy="43.5" r="1.5"/>
            <circle cx="171.5" cy="40.5" r="1.5"/>
        </g>
    </g>
</svg>
