<svg xmlns="http://www.w3.org/2000/svg" width="47" height="141" viewBox="0 0 47 141">
    <g fill="#FFF" fill-rule="nonzero" opacity=".422" transform="rotate(-88 71.469 70.273)">
        <circle cx="1.214" cy="31.156" r="1.214"/>
        <circle cx="6.069" cy="29.538" r="1.214"/>
        <circle cx="10.925" cy="27.11" r="1.214"/>
        <circle cx="14.971" cy="23.873" r="1.214"/>
        <circle cx="19.017" cy="20.636" r="1.214"/>
        <circle cx="23.873" cy="18.208" r="1.214"/>
        <circle cx="28.728" cy="14.971" r="1.214"/>
        <circle cx="34.393" cy="14.162" r="1.214"/>
        <circle cx="39.249" cy="15.78" r="1.214"/>
        <circle cx="43.295" cy="19.017" r="1.214"/>
        <circle cx="45.723" cy="23.064" r="1.214"/>
        <circle cx="44.913" cy="27.11" r="1.214"/>
        <circle cx="42.486" cy="31.156" r="1.214"/>
        <circle cx="37.63" cy="33.584" r="1.214"/>
        <circle cx="31.965" cy="32.775" r="1.214"/>
        <circle cx="29.538" cy="28.728" r="1.214"/>
        <circle cx="29.538" cy="23.873" r="1.214"/>
        <circle cx="31.965" cy="19.017" r="1.214"/>
        <circle cx="37.63" cy="10.116" r="1.214"/>
        <circle cx="41.676" cy="6.069" r="1.214"/>
        <circle cx="46.532" cy="2.832" r="1.214"/>
        <circle cx="52.197" cy="1.214" r="1.214"/>
        <circle cx="57.861" cy="1.214" r="1.214"/>
        <circle cx="63.526" cy="2.832" r="1.214"/>
        <circle cx="68.382" cy="6.069" r="1.214"/>
        <circle cx="72.428" cy="10.116" r="1.214"/>
        <circle cx="75.665" cy="14.162" r="1.214"/>
        <circle cx="78.902" cy="18.208" r="1.214"/>
        <circle cx="82.139" cy="22.254" r="1.214"/>
        <circle cx="84.566" cy="26.301" r="1.214"/>
        <circle cx="87.803" cy="30.347" r="1.214"/>
        <circle cx="91.85" cy="33.584" r="1.214"/>
        <circle cx="95.896" cy="36.821" r="1.214"/>
        <circle cx="100.751" cy="39.249" r="1.214"/>
        <circle cx="106.416" cy="41.676" r="1.214"/>
        <circle cx="112.081" cy="42.486" r="1.214"/>
        <circle cx="117.746" cy="42.486" r="1.214"/>
        <circle cx="122.601" cy="41.676" r="1.214"/>
        <circle cx="126.647" cy="40.058" r="1.214"/>
        <circle cx="130.694" cy="37.63" r="1.214"/>
        <circle cx="134.74" cy="35.202" r="1.214"/>
        <circle cx="138.786" cy="32.775" r="1.214"/>
    </g>
</svg>
