<svg xmlns="http://www.w3.org/2000/svg" width="22" height="18" viewBox="0 0 22 18">
    <path fill="#6D6DC9" fill-rule="nonzero" d="M.128 7.348c-.26.677-.044 1.27-.044 1.27.27.702.591.816 1.267.816.226 0 .438-.048.62-.13v8.438h8.937v-5.118h5.584v5.118h3.352V9.304c.183.082.394.13.621.13.675 0 1.12-.559 1.223-.935 0 0 .234-.708 0-1.15-.4-.752-3.413-7.34-3.413-7.34H3.54L.128 7.349zm2.451 1.15v-.107h-.005V7.348l2.31-5.9h1.845l-1.818 5.9V8.5c0 .517-.522.935-1.166.935-.644 0-1.166-.418-1.166-.935zm4.416 6.06H3.972v-3.022h3.022v3.022zm2.693-7.21V8.5c0 .516-.522.935-1.165.935-.645 0-1.167-.418-1.167-.935V7.348l.966-5.9h1.84l-.474 5.9zm3.611 2.086c-.643 0-1.165-.418-1.165-.935V7.348l-.475-5.9h1.835l.965 5.9V8.5c0 .015.003.031.004.046-.031.495-.54.889-1.164.889zm5.943-1.043h-.006v.108c0 .516-.522.935-1.166.935-.643 0-1.165-.418-1.165-.935V7.348l-1.819-5.9h1.846l2.31 5.9v1.043z"/>
</svg>
