<svg xmlns="http://www.w3.org/2000/svg" width="114" height="104" viewBox="0 0 114 104">
    <g fill="none" fill-rule="evenodd">
        <path fill="#D2D2D2" fill-rule="nonzero" d="M99 .213c-8.272 0-15 6.727-15 15 0 8.272 6.728 15 15 15s15-6.728 15-15c0-8.273-6.728-15-15-15zm0 2c7.192 0 13 5.808 13 13 0 7.191-5.808 13-13 13s-13-5.809-13-13c0-7.192 5.808-13 13-13zm0 2a2 2 0 0 0-2 2l.333 13a1.667 1.667 0 0 0 3.334 0l.333-13a2 2 0 0 0-2-2zm0 18a2 2 0 1 0 0 4 2 2 0 0 0 0-4z"/>
        <path fill="#6D6DC9" d="M41.395 16.108c-.167.028-.33.074-.486.139L6.395 29.684c-1.194.465-1.759 2.09-1.111 3.195l6.701 11.285L.665 53.92c-1.156.98-.811 3.172.591 3.75l11.389 4.722V85.69c.057 1.404.636 2.05 1.77 2.535l38.265 14.827a2.252 2.252 0 0 0 1.736-.035l32.743-14.896c1.17-.643 1.376-1.121 1.493-2.43V63.296l5.972-3.23c1.012-.551 1.44-1.965.903-2.985l-6.354-12.049 8.298-8.576c1.037-1.059.56-3.144-.833-3.646L60.492 19.824a2.226 2.226 0 0 0-.66-.105 2.244 2.244 0 0 0-1.458.452l-8.993 7.014-5.73-10a2.271 2.271 0 0 0-2.048-1.077 2.172 2.172 0 0 0-.208 0z" opacity=".331"/>
        <path fill="#FFF" d="M40.735 21.073l4.827 8.368-29.757 12.396-5.348-8.958 30.278-11.806zm19.41 3.368l31.736 11.39-6.042 6.215-32.638-12.223 6.944-5.382zM15.249 47.22l33.785 13.056L38.548 68.4 6.29 54.962l8.958-7.743zm70.174.313l5.139 9.687-27.188 14.722-6.701-11.319 28.75-13.09zM51.29 64.164V97.74L17.089 84.476V64.268l20.973 8.715c.71.295 1.573.185 2.187-.278l11.042-8.541z"/>
    </g>
</svg>
