<svg xmlns="http://www.w3.org/2000/svg" width="25" height="23" viewBox="0 0 25 23">
    <g fill="#010101" fill-rule="nonzero">
        <path d="M23.36.04H1.562C.703.04 0 .741 0 1.601c0 .859.703 1.562 1.563 1.562H23.32c.86 0 1.563-.703 1.563-1.562 0-.86-.664-1.563-1.524-1.563zM18.477 9.766H1.562C.704 9.766 0 10.469 0 11.328c0 .86.703 1.563 1.563 1.563h16.914c.859 0 1.562-.704 1.562-1.563 0-.86-.703-1.562-1.562-1.562zM18.477 19.453H1.562c-.859 0-1.562.703-1.562 1.563 0 .859.703 1.562 1.563 1.562h16.914c.859 0 1.562-.703 1.562-1.562 0-.86-.703-1.563-1.562-1.563z"/>
    </g>
</svg>
