<svg xmlns="http://www.w3.org/2000/svg" width="20" height="23" viewBox="0 0 20 23">
    <path fill="#6D6DC9" fill-rule="nonzero" d="M.055 21.093v-4.048c-.004-.615.27-1.2.745-1.59a30.748 30.748 0 0 1 4.011-2.76.58.58 0 0 1 .82.26L8.36 18.97l.991-2.356a1.38 1.38 0 1 1 1.302 0l.984 2.359 2.732-6.018a.58.58 0 0 1 .82-.264 30.7 30.7 0 0 1 4.012 2.764c.475.39.749.975.745 1.59v4.05a1.177 1.177 0 0 1-1.177 1.178H1.234a1.18 1.18 0 0 1-1.18-1.18zM5.086 5.184c.115-.425.285-.833.505-1.214l-.568-.81a.75.75 0 0 1 .084-.962l.575-.584a.75.75 0 0 1 .961-.084l.812.568a5.052 5.052 0 0 1 1.222-.507l.17-.975A.75.75 0 0 1 9.588 0h.827a.75.75 0 0 1 .738.62l.17.97c.425.116.833.285 1.214.505l.812-.568a.75.75 0 0 1 .97.087l.584.584a.75.75 0 0 1 .084.961l-.568.811c.22.381.39.79.505 1.214l.975.17a.75.75 0 0 1 .62.74v.826a.75.75 0 0 1-.62.74l-.975.17a5.052 5.052 0 0 1-.505 1.215l.568.812a.75.75 0 0 1-.084.961l-.584.587a.75.75 0 0 1-.961.084l-.818-.58c-.381.22-.79.39-1.214.505l-.17.975a.75.75 0 0 1-.74.62h-.829a.75.75 0 0 1-.738-.62l-.17-.975a5.052 5.052 0 0 1-1.217-.505l-.811.568a.75.75 0 0 1-.968-.072l-.584-.585a.75.75 0 0 1-.084-.96l.568-.812c-.22-.382-.39-.79-.505-1.216l-.975-.17a.75.75 0 0 1-.62-.74v-.827a.75.75 0 0 1 .62-.738l.984-.173zm2.58 1.323a2.334 2.334 0 1 0 4.668 0 2.334 2.334 0 0 0-4.668.002v-.002z"/>
</svg>
