<svg xmlns="http://www.w3.org/2000/svg" width="100" height="118" viewBox="0 0 100 118">
    <g fill="none" fill-rule="nonzero">
        <path fill="#E6E6F5" stroke="#E6E6F5" d="M74.94 31.71l-.44-.055V8.5a8 8 0 0 0-8-8h-58a8 8 0 0 0-8 8v101a8 8 0 0 0 8 8h58a8 8 0 0 0 8-8V87.345l.44-.054C88.895 85.58 99.5 73.684 99.5 59.5c0-14.184-10.604-26.082-24.56-27.79z" opacity=".236"/>
        <path fill="#6D6DC9" d="M56.3 70.7h-2.7V49.1h2.7v21.6zm21.6-21.6h-2.7v21.6h2.7V49.1zm-27 0h-5.4v21.6h5.4V49.1zm16.2 0H59v21.6h8.1V49.1zm-24.3 0h-2.7v21.6h2.7V49.1zm29.7 0h-2.7v21.6h2.7V49.1zM48.2 77.45a1.35 1.35 0 0 0-1.35-1.35h-5.4a6.758 6.758 0 0 1-6.75-6.75v-2.7a1.35 1.35 0 0 0-2.7 0v2.7a9.461 9.461 0 0 0 9.45 9.45h5.4a1.35 1.35 0 0 0 1.35-1.35zm37.8-8.1v-2.7a1.35 1.35 0 0 0-2.7 0v2.7a6.758 6.758 0 0 1-6.75 6.75h-5.4a1.35 1.35 0 0 0 0 2.7h5.4A9.461 9.461 0 0 0 86 69.35zm0-16.2v-2.7A9.461 9.461 0 0 0 76.55 41h-5.4a1.35 1.35 0 0 0 0 2.7h5.4a6.758 6.758 0 0 1 6.75 6.75v2.7a1.35 1.35 0 0 0 2.7 0zm-51.3 0v-2.7a6.758 6.758 0 0 1 6.75-6.75h5.4a1.35 1.35 0 0 0 0-2.7h-5.4A9.461 9.461 0 0 0 32 50.45v2.7a1.35 1.35 0 0 0 2.7 0z" opacity=".78"/>
    </g>
</svg>
