<svg xmlns="http://www.w3.org/2000/svg" width="22" height="20" viewBox="0 0 22 20">
    <g fill="#FFF" fill-rule="nonzero">
        <path d="M21.972 8.719a1.71 1.71 0 0 0-.646-1.148L12.342.514a2.181 2.181 0 0 0-2.7 0L.656 7.57a1.723 1.723 0 0 0-.29 2.417c.586.746 1.67.876 2.417.29l7.414-5.824a1.282 1.282 0 0 1 1.587 0l7.415 5.824a1.72 1.72 0 0 0 2.772-1.559"/>
        <path d="M18.575 10.843L11.83 5.584a1.363 1.363 0 0 0-1.678 0l-6.744 5.26a.45.45 0 0 0-.174.355V17.2c0 1.077.876 1.953 1.953 1.953h11.608a1.955 1.955 0 0 0 1.952-1.953V11.2a.45.45 0 0 0-.173-.356"/>
    </g>
</svg>
