<svg xmlns="http://www.w3.org/2000/svg" width="25" height="22" viewBox="0 0 25 22">
    <path fill="#6D6DC9" fill-rule="nonzero" d="M16.96 0H7.991A7.956 7.956 0 0 0 2.34 2.34 7.956 7.956 0 0 0 0 7.991c0 4.386 3.606 7.992 7.992 7.992h4.386a.21.21 0 0 1 .195.195v5.605c0 .195.195.292.341.146l8.187-7.018h.05C23.44 13.548 25 11.062 25 8.187v-.195C24.951 3.606 21.345 0 16.96 0zm-2.73 9.99H7.846a.75.75 0 0 1-.731-.73.75.75 0 0 1 .731-.732h6.433a.75.75 0 0 1 .73.731c-.048.39-.39.731-.779.731zm2.875-3.119H7.846a.75.75 0 0 1-.731-.73.75.75 0 0 1 .731-.732h9.308a.75.75 0 0 1 .731.731c0 .39-.341.731-.78.731z"/>
</svg>
