<svg xmlns="http://www.w3.org/2000/svg" width="18" height="21" viewBox="0 0 18 21">
    <path fill="#6D6DC9" fill-rule="nonzero" d="M17.1 6.075l-6.75-5.063c-.8-.6-1.9-.6-2.7 0L.9 6.075a2.25 2.25 0 0 0-.9 1.8V18a2.25 2.25 0 0 0 2.25 2.25c.621 0 1.125-.504 1.125-1.125v-7.313c0-.931.756-1.687 1.688-1.687h7.875c.931 0 1.687.756 1.687 1.688v7.312c0 .621.504 1.125 1.125 1.125A2.25 2.25 0 0 0 18 18V7.875a2.25 2.25 0 0 0-.9-1.8zm-6.694 1.8H7.594a.844.844 0 1 1 0-1.688h2.812a.844.844 0 1 1 0 1.688zm3.094 6.188a.562.562 0 0 1-.563.562H5.064a.562.562 0 1 1 0-1.125h7.875a.562.562 0 0 1 .562.563zm0-2.25a.562.562 0 0 1-.563.562H5.064a.562.562 0 1 1 0-1.125h7.875a.562.562 0 0 1 .562.563zm0 4.5a.562.562 0 0 1-.563.562H5.064a.562.562 0 1 1 0-1.125h7.875a.562.562 0 0 1 .562.563zm0 2.25a.562.562 0 0 1-.563.562H5.064a.562.562 0 1 1 0-1.125h7.875a.562.562 0 0 1 .562.563z"/>
</svg>
